<?xml version="1.0" encoding="UTF-8" standalone="no"?>
<svg
   xmlns:dc="http://purl.org/dc/elements/1.1/"
   xmlns:cc="http://creativecommons.org/ns#"
   xmlns:rdf="http://www.w3.org/1999/02/22-rdf-syntax-ns#"
   xmlns:svg="http://www.w3.org/2000/svg"
   xmlns="http://www.w3.org/2000/svg"
   xmlns:sodipodi="http://sodipodi.sourceforge.net/DTD/sodipodi-0.dtd"
   xmlns:inkscape="http://www.inkscape.org/namespaces/inkscape"
   sodipodi:docname="CVInts.svg"
   inkscape:version="1.0 (4035a4fb49, 2020-05-01)"
   id="svg8"
   version="1.1"
   viewBox="0 0 10.16 128.5"
   height="128.5mm"
   width="10.16mm">
  <defs
     id="defs2" />
  <sodipodi:namedview
     inkscape:snap-global="true"
     inkscape:snap-bbox-midpoints="true"
     inkscape:snap-bbox="true"
     inkscape:document-rotation="0"
     inkscape:window-maximized="1"
     inkscape:window-y="27"
     inkscape:window-x="0"
     inkscape:window-height="712"
     inkscape:window-width="1366"
     inkscape:lockguides="false"
     inkscape:guide-bbox="true"
     showguides="true"
     units="mm"
     showgrid="false"
     inkscape:current-layer="layer1"
     inkscape:document-units="mm"
     inkscape:cy="117.5792"
     inkscape:cx="-65.240783"
     inkscape:zoom="1.4675905"
     inkscape:pageshadow="2"
     inkscape:pageopacity="0.0"
     borderopacity="1.0"
     bordercolor="#666666"
     pagecolor="#ffffff"
     id="base"
     inkscape:bbox-nodes="false"
     inkscape:bbox-paths="false"
     inkscape:snap-grids="false"
     inkscape:snap-others="false"
     inkscape:object-nodes="false"
     inkscape:snap-nodes="false"
     inkscape:snap-bbox-edge-midpoints="false">
    <sodipodi:guide
       position="19.366522,111"
       orientation="0,1"
       id="guide837"
       inkscape:label=""
       inkscape:locked="false"
       inkscape:color="rgb(0,0,255)" />
    <sodipodi:guide
       inkscape:color="rgb(0,0,255)"
       inkscape:locked="false"
       inkscape:label=""
       id="guide875"
       orientation="0,1"
       position="-9.0869999,37.500002" />
    <sodipodi:guide
       position="20,86.500003"
       orientation="0,1"
       id="guide891"
       inkscape:label=""
       inkscape:locked="false"
       inkscape:color="rgb(0,0,255)" />
    <sodipodi:guide
       position="-0.45667893,49.750002"
       orientation="0,1"
       id="guide893"
       inkscape:label=""
       inkscape:locked="false"
       inkscape:color="rgb(0,0,255)" />
    <sodipodi:guide
       position="-21.247928,74.250003"
       orientation="0,1"
       id="guide901"
       inkscape:label=""
       inkscape:locked="false"
       inkscape:color="rgb(0,0,255)" />
    <sodipodi:guide
       position="-2.5513393,98.750004"
       orientation="0,1"
       id="guide947"
       inkscape:label=""
       inkscape:locked="false"
       inkscape:color="rgb(0,0,255)" />
    <sodipodi:guide
       position="1.58,32.186943"
       orientation="-1,0"
       id="guide996"
       inkscape:label=""
       inkscape:locked="false"
       inkscape:color="rgb(0,0,255)" />
    <sodipodi:guide
       position="8.5799999,33.10826"
       orientation="-1,0"
       id="guide998"
       inkscape:label=""
       inkscape:locked="false"
       inkscape:color="rgb(0,0,255)" />
    <sodipodi:guide
       position="-4.8854,25.250001"
       orientation="0,1"
       id="guide3392"
       inkscape:label=""
       inkscape:locked="false"
       inkscape:color="rgb(0,0,255)" />
    <sodipodi:guide
       inkscape:color="rgb(0,0,255)"
       inkscape:locked="false"
       inkscape:label=""
       id="guide907"
       orientation="0,1"
       position="-14.335827,13.000001" />
    <sodipodi:guide
       position="-2.015698,62.000003"
       orientation="0,1"
       id="guide908"
       inkscape:label=""
       inkscape:locked="false"
       inkscape:color="rgb(0,0,255)" />
    <sodipodi:guide
       position="2.5000001,103.0901"
       orientation="-1,0"
       id="guide993"
       inkscape:label=""
       inkscape:locked="false"
       inkscape:color="rgb(0,0,255)" />
    <sodipodi:guide
       position="7.667205,108.44731"
       orientation="1,0"
       id="guide909" />
    <sodipodi:guide
       inkscape:color="rgb(0,0,255)"
       inkscape:locked="false"
       inkscape:label=""
       id="guide944"
       orientation="-1,0"
       position="5.0800002,74.250002" />
  </sodipodi:namedview>
  <metadata
     id="metadata5">
    <rdf:RDF>
      <cc:Work
         rdf:about="">
        <dc:format>image/svg+xml</dc:format>
        <dc:type
           rdf:resource="http://purl.org/dc/dcmitype/StillImage" />
        <dc:title />
      </cc:Work>
    </rdf:RDF>
  </metadata>
  <g
     transform="translate(0,-168.5)"
     id="layer1"
     inkscape:groupmode="layer"
     inkscape:label="Layer 1"
     style="display:inline;opacity:0.996">
    <rect
       style="display:inline;opacity:1;fill:#bbbbb0;fill-opacity:1;stroke:none;stroke-width:1.131;stroke-miterlimit:4;stroke-dasharray:none"
       id="rect838"
       width="10.16"
       height="128.5"
       x="-5.5511151e-17"
       y="168.5" />
    <rect
       rx="0.80000001"
       ry="0.80000013"
       y="265.25"
       x="0.77999979"
       height="23.25"
       width="8.6000004"
       id="rect912"
       style="fill:#555d50;fill-opacity:1;stroke:none;stroke-width:0.829457;stroke-opacity:0.25" />
    <rect
       style="fill:#555d50;fill-opacity:1;stroke:none;stroke-width:0.829454;stroke-opacity:0.25"
       id="rect45"
       width="8.6000004"
       height="23.25"
       x="0.77999979"
       y="191.75"
       ry="0.80000001"
       rx="0.80000001" />
    <g
       transform="translate(9.46,-1.5)"
       aria-label="CV Out"
       id="text851"
       style="font-weight:bold;font-stretch:condensed;font-size:2.82223px;line-height:1.25;font-family:'PT Sans Narrow';-inkscape-font-specification:'PT Sans Narrow, Bold Condensed';display:inline;fill:#ffffff;stroke-width:0.264583">
      <path
         inkscape:connector-curvature="0"
         d="m 3.1180002,263.0273 q 0,-0.50236 0.172156,-0.76483 Q 3.4623123,262 3.815091,262 q 0.183445,0 0.3160898,0.0734 0.1326448,0.0706 0.2173117,0.20602 0.084667,0.13265 0.1241782,0.32456 0.042333,0.18909 0.042333,0.42334 0,0.50235 -0.1778005,0.76482 -0.1749783,0.26247 -0.5221126,0.26247 -0.1862671,0 -0.318912,-0.0706 -0.1298225,-0.0734 -0.2144895,-0.20602 Q 3.1970221,263.64252 3.157511,263.45343 3.118,263.26152 3.118,263.02728 Z m 0.3725344,0 q 0,0.14957 0.016933,0.2794 0.016933,0.127 0.056445,0.22013 0.039511,0.0931 0.098778,0.14676 0.062089,0.0536 0.1524004,0.0536 0.1636894,0 0.2455341,-0.16651 0.081845,-0.16651 0.081845,-0.5334 0,-0.14394 -0.016933,-0.27094 -0.016933,-0.12982 -0.056445,-0.22296 -0.036689,-0.0959 -0.098778,-0.14957 -0.062089,-0.0564 -0.1552227,-0.0564 -0.3245564,0 -0.3245564,0.69992 z"
         style="fill:#ffffff;stroke-width:0.264583"
         id="path931" />
      <path
         inkscape:connector-curvature="0"
         d="m 5.04276,262.60396 v 0.84385 q 0,0.16651 0.031045,0.23142 0.031045,0.0649 0.1128892,0.0649 0.079022,0 0.1326448,-0.0564 0.053622,-0.0593 0.0762,-0.14111 v -0.94263 h 0.3358454 v 0.98214 q 0,0.11571 0.00847,0.2286 0.00847,0.11006 0.031045,0.20038 H 5.5168946 l -0.059267,-0.19192 h -0.00847 q -0.053622,0.0988 -0.146756,0.16369 -0.090311,0.0649 -0.2257784,0.0649 -0.087489,0 -0.1552226,-0.0254 -0.067734,-0.0226 -0.1157115,-0.0818 -0.047978,-0.0593 -0.073378,-0.16087 -0.0254,-0.10442 -0.0254,-0.26246 v -0.91723 z"
         style="fill:#ffffff;stroke-width:0.264583"
         id="path933" />
      <path
         inkscape:connector-curvature="0"
         d="M 5.8668483,262.60396 H 6.022071 v -0.26529 l 0.3358454,-0.10442 v 0.36971 h 0.2737563 v 0.29916 H 6.3579164 v 0.61524 q 0,0.12136 0.022578,0.17216 0.0254,0.0508 0.087489,0.0508 0.042333,0 0.0762,-0.008 0.033867,-0.008 0.073378,-0.0254 l 0.042333,0.26811 q -0.062089,0.0311 -0.1439337,0.0508 -0.081845,0.0226 -0.1721561,0.0226 -0.1608671,0 -0.2427118,-0.0931 -0.079022,-0.0931 -0.079022,-0.31327 v -0.73942 H 5.8668483 Z"
         style="fill:#ffffff;stroke-width:0.264583"
         id="path935" />
    </g>
    <text
       xml:space="preserve"
       style="font-weight:bold;font-stretch:condensed;font-size:2.82223px;line-height:1.25;font-family:'PT Sans Narrow';-inkscape-font-specification:'PT Sans Narrow, Bold Condensed';stroke-width:0.264583"
       x="2.0529213"
       y="233.73691"
       id="text64"><tspan
         sodipodi:role="line"
         id="tspan62"
         x="2.0529213"
         y="233.73691"
         style="stroke-width:0.264583" /></text>
    <g
       style="font-weight:bold;font-stretch:condensed;font-size:2.82223px;line-height:1.25;font-family:'PT Sans Narrow';-inkscape-font-specification:'PT Sans Narrow, Bold Condensed';fill:#ffffff;stroke-width:0.264583"
       id="text883"
       aria-label="Trig"
       transform="translate(9.3600333,-1)">
      <path
         id="path886"
         style="fill:#ffffff;stroke-width:0.264583"
         d="M 4.5395481,276.8556 H 4.0710579 v 1.64818 H 3.7154569 V 276.8556 H 3.2469667 v -0.32738 h 1.2925814 z"
         inkscape:connector-curvature="0" />
      <path
         id="path888"
         style="fill:#ffffff;stroke-width:0.264583"
         d="m 5.1068123,277.42569 q -0.067733,-0.0254 -0.1241781,-0.0254 -0.0762,0 -0.1326449,0.0423 -0.053622,0.0423 -0.073378,0.11853 v 0.94262 H 4.440766 v -1.41111 h 0.2568229 l 0.039511,0.16933 h 0.011289 q 0.036689,-0.0931 0.1044225,-0.14393 0.070556,-0.0536 0.1608671,-0.0536 0.067734,0 0.1326448,0.0282 z"
         inkscape:connector-curvature="0" />
      <path
         id="path890"
         style="fill:#ffffff;stroke-width:0.264583"
         d="M 5.2958996,277.09267 H 5.631745 v 1.41111 H 5.2958996 Z m -0.039511,-0.39794 q 0,-0.0847 0.053622,-0.13828 0.053622,-0.0564 0.1524004,-0.0564 0.098778,0 0.1580449,0.0536 0.059267,0.0536 0.059267,0.14111 0,0.0875 -0.059267,0.13829 -0.059267,0.0508 -0.1580449,0.0508 -0.098778,0 -0.1524004,-0.0508 -0.053622,-0.0536 -0.053622,-0.13829 z"
         inkscape:connector-curvature="0" />
      <path
         id="path892"
         style="fill:#ffffff;stroke-width:0.264583"
         d="m 6.9130332,278.50378 q 0,0.30763 -0.1411115,0.45156 -0.1411115,0.14676 -0.39229,0.14676 -0.1749783,0 -0.2737563,-0.0282 -0.098778,-0.0254 -0.1524005,-0.0564 l 0.070556,-0.28505 q 0.062089,0.0254 0.1326448,0.048 0.073378,0.0226 0.172156,0.0226 0.1439338,0 0.1975561,-0.079 0.056445,-0.0762 0.056445,-0.23425 v -0.0762 h -0.00847 q -0.039511,0.0564 -0.1072448,0.0847 -0.064911,0.0282 -0.1693338,0.0282 -0.2229562,0 -0.3358454,-0.16651 -0.1100669,-0.16933 -0.1100669,-0.5334 0,-0.39229 0.1524004,-0.57856 0.1552226,-0.18627 0.4402679,-0.18627 0.1524004,0 0.2737563,0.0254 0.1213559,0.0226 0.1947339,0.0564 z m -0.5221126,-0.26529 q 0.0762,0 0.1185337,-0.0367 0.045156,-0.0367 0.067734,-0.10443 v -0.70555 q -0.031045,-0.0141 -0.070556,-0.0226 -0.036689,-0.008 -0.087489,-0.008 -0.1044225,0 -0.1636893,0.1016 -0.056445,0.1016 -0.056445,0.34996 0,0.42615 0.1919116,0.42615 z"
         inkscape:connector-curvature="0" />
    </g>
    <g
       aria-label="GRANDE"
       id="text2569"
       style="font-size:1.76389px;line-height:1.25;font-family:'Source Sans Pro';-inkscape-font-specification:'Source Sans Pro, Normal';text-align:center;letter-spacing:0.370417px;text-anchor:middle;stroke-width:0.264583"
       transform="translate(0,-0.83024)">
      <path
         d="m 1.6963961,292.52968 c 0.1552223,0 0.2822224,-0.0564 0.3580696,-0.13405 v -0.48684 H 1.6734655 v 0.12171 h 0.2451807 v 0.30163 c -0.045861,0.0423 -0.1252362,0.067 -0.208139,0.067 -0.2469446,0 -0.3827641,-0.18168 -0.3827641,-0.47272 0,-0.28751 0.1481667,-0.46567 0.3810002,-0.46567 0.1164167,0 0.1905001,0.0441 0.2487085,0.10407 l 0.081139,-0.0917 c -0.067028,-0.0723 -0.1728612,-0.14287 -0.3333752,-0.14287 -0.3069168,0 -0.5309309,0.22754 -0.5309309,0.59972 0,0.37747 0.2169585,0.59972 0.5221114,0.59972 z"
         style="stroke-width:0.264583"
         id="path2571" />
      <path
         d="m 2.7000468,292.50851 h 0.1481668 v -0.48859 h 0.208139 l 0.2786946,0.48859 h 0.1675696 l -0.2945696,-0.50447 c 0.1569862,-0.0406 0.2592918,-0.1464 0.2592918,-0.32632 0,-0.24165 -0.1693334,-0.32632 -0.4056947,-0.32632 H 2.7000468 Z m 0.1481668,-0.60854 v -0.42862 h 0.192264 c 0.1799168,0 0.2786946,0.0547 0.2786946,0.20637 0,0.14817 -0.098778,0.22225 -0.2786946,0.22225 z"
         style="stroke-width:0.264583"
         id="path2573" />
      <path
         d="m 4.2699053,291.86293 c 0.04057,-0.12876 0.077611,-0.25576 0.112889,-0.38982 h 0.00706 c 0.037042,0.13406 0.074083,0.26106 0.1164168,0.38982 l 0.054681,0.17463 H 4.2152247 Z m -0.3545419,0.64558 h 0.1499307 l 0.111125,-0.35101 H 4.5979889 L 4.70735,292.50851 H 4.8643363 L 4.4745166,291.3514 H 4.3051831 Z"
         style="stroke-width:0.264583"
         id="path2575" />
      <path
         d="M 5.3987927,292.50851 H 5.53814 v -0.60854 c 0,-0.11994 -0.010583,-0.24518 -0.019403,-0.3616 h 0.00706 c 0.038806,0.0847 0.081139,0.1711 0.1252362,0.24871 l 0.4127502,0.72143 H 6.2225293 V 291.3514 H 6.083182 v 0.60325 c 0,0.11995 0.010583,0.24695 0.019403,0.36689 h -0.00706 c -0.040569,-0.0847 -0.081139,-0.1711 -0.1252361,-0.24871 L 5.5575428,291.3514 H 5.3987927 Z"
         style="stroke-width:0.264583"
         id="path2577" />
      <path
         d="m 6.9086818,292.50851 h 0.2963335 c 0.3492503,0 0.5397504,-0.21519 0.5397504,-0.58384 0,-0.36689 -0.1905001,-0.57327 -0.5468059,-0.57327 h -0.289278 z m 0.1481668,-0.1217 v -0.9137 h 0.1305278 c 0.2698752,0 0.4039309,0.16051 0.4039309,0.45156 0,0.2928 -0.1340557,0.46214 -0.4039309,0.46214 z"
         style="stroke-width:0.264583"
         id="path2579" />
      <path
         d="m 8.3656535,292.50851 h 0.6843893 v -0.12523 H 8.5138202 v -0.41981 h 0.4374447 v -0.12523 H 8.5138202 v -0.3616 H 9.0324039 V 291.3514 H 8.3656535 Z"
         style="stroke-width:0.264583"
         id="path2581" />
    </g>
    <text
       xml:space="preserve"
       style="font-weight:bold;font-stretch:condensed;font-size:2.82223px;line-height:1.25;font-family:'PT Sans Narrow';-inkscape-font-specification:'PT Sans Narrow, Bold Condensed';text-align:center;text-anchor:middle;stroke-width:0.264583"
       x="7.705914"
       y="247.28606"
       id="text925"><tspan
         sodipodi:role="line"
         id="tspan923"
         x="7.705914"
         y="247.28606"
         style="stroke-width:0.264583" /></text>
    <rect
       rx="0.80000001"
       ry="0.80000001"
       y="228.5"
       x="0.77999979"
       height="23.25"
       width="8.6000004"
       id="rect918"
       style="fill:#555d50;fill-opacity:1;stroke:none;stroke-width:0.829454;stroke-opacity:0.25" />
    <g
       style="font-weight:bold;font-stretch:condensed;font-size:4.23333px;line-height:1.25;font-family:'PT Sans Narrow';-inkscape-font-specification:'PT Sans Narrow, Bold Condensed';letter-spacing:0px;word-spacing:0px;fill:#fffff0;fill-opacity:1;stroke-width:0.264583"
       id="text951"
       aria-label="+"
       transform="translate(0,12.15)">
      <path
         id="path991"
         style="fill:#fffff0;fill-opacity:1;stroke-width:0.264583"
         d="M 6.8882721,180.61807 H 7.4343716 V 180 h 0.4656663 v 0.61807 h 0.5460995 v 0.44873 H 7.9000379 v 0.6223 H 7.4343716 v -0.6223 H 6.8882721 Z" />
    </g>
    <g
       style="font-weight:bold;font-stretch:condensed;font-size:4.23333px;line-height:1.25;font-family:'PT Sans Narrow';-inkscape-font-specification:'PT Sans Narrow, Bold Condensed';letter-spacing:0px;word-spacing:0px;fill:#fffff0;fill-opacity:1;stroke-width:0.264583"
       id="text959"
       aria-label="–"
       transform="translate(0,12.15)">
      <path
         id="path994"
         style="fill:#fffff0;fill-opacity:1;stroke-width:0.264583"
         d="m 6.888272,192.86399 h 1.5578654 v 0.46144 H 6.888272 Z" />
    </g>
    <g
       style="font-weight:bold;font-stretch:condensed;font-size:4.23333px;line-height:1.25;font-family:'PT Sans Narrow';-inkscape-font-specification:'PT Sans Narrow, Bold Condensed';letter-spacing:0px;word-spacing:0px;fill:#fffff0;fill-opacity:1;stroke-width:0.264583"
       id="text963"
       aria-label="+"
       transform="translate(0,12.25)">
      <path
         id="path985"
         style="fill:#fffff0;fill-opacity:1;stroke-width:0.264583"
         d="M 6.8882721,217.36807 H 7.4343716 V 216.75 h 0.4656663 v 0.61807 h 0.5460995 v 0.44873 H 7.9000379 v 0.6223 H 7.4343716 v -0.6223 H 6.8882721 Z" />
    </g>
    <g
       style="font-weight:bold;font-stretch:condensed;font-size:4.23333px;line-height:1.25;font-family:'PT Sans Narrow';-inkscape-font-specification:'PT Sans Narrow, Bold Condensed';letter-spacing:0px;word-spacing:0px;fill:#fffff0;fill-opacity:1;stroke-width:0.264583"
       id="text967"
       aria-label="–"
       transform="translate(0,12.25)">
      <path
         id="path988"
         style="fill:#fffff0;fill-opacity:1;stroke-width:0.264583"
         d="m 6.888272,229.61399 h 1.5578654 v 0.46144 H 6.888272 Z" />
    </g>
    <g
       style="font-weight:bold;font-stretch:condensed;font-size:4.23333px;line-height:1.25;font-family:'PT Sans Narrow';-inkscape-font-specification:'PT Sans Narrow, Bold Condensed';letter-spacing:0px;word-spacing:0px;fill:#fffff0;fill-opacity:1;stroke-width:0.264583"
       id="text971"
       aria-label="+"
       transform="translate(0,12.25)">
      <path
         id="path977"
         style="fill:#fffff0;fill-opacity:1;stroke-width:0.264583"
         d="M 6.8882721,254.11807 H 7.4343716 V 253.5 h 0.4656663 v 0.61807 h 0.5460995 v 0.44873 H 7.9000379 v 0.6223 H 7.4343716 v -0.6223 H 6.8882721 Z" />
    </g>
    <g
       style="font-weight:bold;font-stretch:condensed;font-size:4.23333px;line-height:1.25;font-family:'PT Sans Narrow';-inkscape-font-specification:'PT Sans Narrow, Bold Condensed';letter-spacing:0px;word-spacing:0px;fill:#fffff0;fill-opacity:1;stroke-width:0.264583"
       id="text975"
       aria-label="–"
       transform="translate(0,12.25)">
      <path
         id="path980"
         style="fill:#fffff0;fill-opacity:1;stroke-width:0.264583"
         d="m 6.888272,266.36398 h 1.5578654 v 0.46143 H 6.888272 Z" />
    </g>
    <g
       style="font-weight:bold;font-stretch:condensed;font-size:4.9389px;line-height:1.25;font-family:'PT Sans Narrow';-inkscape-font-specification:'PT Sans Narrow, Bold Condensed';letter-spacing:0px;word-spacing:0px;stroke-width:0.264583"
       id="text1538"
       aria-label="Ints">
      <path
         id="path1540"
         style="stroke-width:0.264583"
         d="m 1.9882565,174 h 0.6223014 v 3.45723 H 1.9882565 Z" />
      <path
         id="path1542"
         style="stroke-width:0.264583"
         d="m 4.3243511,177.45723 v -1.50143 q 0,-0.27164 -0.064206,-0.38029 -0.064206,-0.10866 -0.2173116,-0.10866 -0.1284114,0 -0.2222505,0.079 -0.093839,0.079 -0.1333503,0.19755 v 1.7138 H 3.0995039 v -2.46945 h 0.4691955 l 0.069145,0.28646 h 0.014817 q 0.0889,-0.14323 0.2420061,-0.24201 0.1531059,-0.10372 0.4000509,-0.10372 0.148167,0 0.2617617,0.0445 0.1185336,0.0445 0.197556,0.14817 0.079022,0.0988 0.1185336,0.27164 0.039511,0.16792 0.039511,0.41981 v 1.64465 z" />
      <path
         id="path1544"
         style="stroke-width:0.264583"
         d="m 5.1244501,174.98778 h 0.2716395 v -0.46426 l 0.5877291,-0.18274 v 0.647 H 6.462892 v 0.52352 H 5.9838187 v 1.07668 q 0,0.21238 0.039511,0.30128 0.04445,0.0889 0.1531059,0.0889 0.074083,0 0.1333503,-0.0148 0.059267,-0.0148 0.1284114,-0.0444 l 0.074083,0.4692 q -0.1086558,0.0543 -0.2518839,0.0889 -0.1432281,0.0395 -0.3012729,0.0395 -0.2815173,0 -0.4247454,-0.16299 -0.1382892,-0.16298 -0.1382892,-0.54822 V 175.5113 H 5.1244501 Z" />
      <path
         id="path1546"
         style="stroke-width:0.264583"
         d="m 7.5840144,176.80036 q 0,-0.10372 -0.069145,-0.17287 -0.064206,-0.0741 -0.1679226,-0.13335 -0.1037169,-0.0642 -0.2222505,-0.12841 -0.1135947,-0.0642 -0.2173116,-0.15804 -0.1037169,-0.0938 -0.1728615,-0.22719 -0.064206,-0.13335 -0.064206,-0.33585 0,-0.34572 0.1876782,-0.5334 0.1876782,-0.18768 0.5531568,-0.18768 0.2173116,0 0.4099287,0.0494 0.1926171,0.0445 0.3062118,0.1136 l -0.1382892,0.45438 q -0.093839,-0.0395 -0.2271894,-0.0741 -0.1333503,-0.0395 -0.2617617,-0.0395 -0.2420061,0 -0.2420061,0.2025 0,0.0938 0.064206,0.15804 0.069145,0.0593 0.1728615,0.11854 0.1037169,0.0593 0.2173116,0.12347 0.1185336,0.0642 0.2222505,0.16298 0.1037169,0.0938 0.1679226,0.23213 0.069145,0.13829 0.069145,0.34078 0,0.34079 -0.2074338,0.54822 -0.2074338,0.20744 -0.6173625,0.20744 -0.2024949,0 -0.4000509,-0.0494 -0.1926171,-0.0494 -0.3111507,-0.12842 l 0.1629837,-0.47413 q 0.1037169,0.0593 0.2370672,0.10372 0.1382892,0.0445 0.2864562,0.0445 0.1135947,0 0.1876782,-0.0494 0.074084,-0.0543 0.074084,-0.16792 z" />
    </g>
  </g>
  <g
     style="display:none"
     inkscape:label="components"
     id="layer2"
     inkscape:groupmode="layer">
    <circle
       inkscape:label="CV_Out"
       cy="91"
       cx="5.0799999"
       id="circle921"
       style="fill:#0000ff;fill-rule:evenodd;stroke-width:0.264582"
       r="4" />
    <circle
       r="4"
       style="fill:#0000ff;fill-rule:evenodd;stroke-width:0.264582"
       id="circle906"
       cx="5.0799999"
       cy="103.25"
       inkscape:label="CV_Out" />
    <circle
       inkscape:label="CV_Out"
       cy="66.5"
       cx="5.0799999"
       id="circle914"
       style="fill:#0000ff;fill-rule:evenodd;stroke-width:0.264582"
       r="4" />
    <circle
       r="4"
       style="fill:#0000ff;fill-rule:evenodd;stroke-width:0.264582"
       id="circle920"
       cx="5.0799999"
       cy="29.75"
       inkscape:label="CV_Out" />
    <circle
       r="4"
       style="fill:#00ff00;fill-rule:evenodd;stroke-width:0.264582"
       id="circle916"
       cx="5.0799999"
       cy="78.75"
       inkscape:label="CV_Out" />
    <circle
       r="4"
       style="fill:#0000ff;fill-rule:evenodd;stroke-width:0.264582"
       id="circle925"
       cx="5.0799999"
       cy="17.500004"
       inkscape:label="CV_Out" />
    <circle
       inkscape:label="CV_Out"
       cy="54.25"
       cx="5.0799999"
       id="circle927"
       style="fill:#0000ff;fill-rule:evenodd;stroke-width:0.264582"
       r="4" />
    <circle
       inkscape:label="CV_Out"
       cy="42"
       cx="5.0799999"
       id="circle929"
       style="fill:#00ff00;fill-rule:evenodd;stroke-width:0.264582"
       r="4" />
    <circle
       inkscape:label="CV_Out"
       cy="115.5"
       cx="5.0799999"
       id="circle931"
       style="fill:#00ff00;fill-rule:evenodd;stroke-width:0.264582"
       r="4" />
  </g>
</svg>
