<?xml version="1.0" encoding="UTF-8" standalone="no"?>
<svg
   xmlns:dc="http://purl.org/dc/elements/1.1/"
   xmlns:cc="http://creativecommons.org/ns#"
   xmlns:rdf="http://www.w3.org/1999/02/22-rdf-syntax-ns#"
   xmlns:svg="http://www.w3.org/2000/svg"
   xmlns="http://www.w3.org/2000/svg"
   xmlns:sodipodi="http://sodipodi.sourceforge.net/DTD/sodipodi-0.dtd"
   xmlns:inkscape="http://www.inkscape.org/namespaces/inkscape"
   sodipodi:docname="FreqCV.svg"
   inkscape:version="1.0 (4035a4fb49, 2020-05-01)"
   id="svg8"
   version="1.1"
   viewBox="0 0 10.16 128.5"
   height="128.5mm"
   width="10.16mm">
  <defs
     id="defs2" />
  <sodipodi:namedview
     inkscape:snap-global="true"
     inkscape:snap-bbox-midpoints="true"
     inkscape:snap-bbox="true"
     inkscape:document-rotation="0"
     inkscape:window-maximized="0"
     inkscape:window-y="57"
     inkscape:window-x="184"
     inkscape:window-height="1205"
     inkscape:window-width="1562"
     inkscape:lockguides="false"
     inkscape:guide-bbox="true"
     showguides="true"
     units="mm"
     showgrid="false"
     inkscape:current-layer="layer1"
     inkscape:document-units="mm"
     inkscape:cy="297.12464"
     inkscape:cx="-76.696605"
     inkscape:zoom="2"
     inkscape:pageshadow="2"
     inkscape:pageopacity="0.0"
     borderopacity="1.0"
     bordercolor="#666666"
     pagecolor="#ffffff"
     id="base"
     inkscape:bbox-nodes="false"
     inkscape:bbox-paths="false"
     inkscape:snap-grids="false"
     inkscape:snap-others="false"
     inkscape:object-nodes="false"
     inkscape:snap-nodes="false"
     inkscape:snap-bbox-edge-midpoints="false">
    <sodipodi:guide
       position="-8.0350637,62.000003"
       orientation="0,1"
       id="guide893"
       inkscape:label=""
       inkscape:locked="false"
       inkscape:color="rgb(0,0,255)" />
    <sodipodi:guide
       position="-3.0343819,86.500003"
       orientation="0,1"
       id="guide899"
       inkscape:label=""
       inkscape:locked="false"
       inkscape:color="rgb(0,0,255)" />
    <sodipodi:guide
       position="-2.5513393,101.5"
       orientation="0,1"
       id="guide947"
       inkscape:label=""
       inkscape:locked="false"
       inkscape:color="rgb(0,0,255)" />
    <sodipodi:guide
       position="1.58,32.186943"
       orientation="-1,0"
       id="guide996"
       inkscape:label=""
       inkscape:locked="false"
       inkscape:color="rgb(0,0,255)" />
    <sodipodi:guide
       position="8.5799999,33.10826"
       orientation="-1,0"
       id="guide998"
       inkscape:label=""
       inkscape:locked="false"
       inkscape:color="rgb(0,0,255)" />
    <sodipodi:guide
       position="-11.395675,72.250003"
       orientation="0,1"
       id="guide908"
       inkscape:label=""
       inkscape:locked="false"
       inkscape:color="rgb(0,0,255)" />
    <sodipodi:guide
       position="2.5000001,103.0901"
       orientation="-1,0"
       id="guide993"
       inkscape:label=""
       inkscape:locked="false"
       inkscape:color="rgb(0,0,255)" />
    <sodipodi:guide
       position="-4.1701041,47.750002"
       orientation="0,1"
       id="guide887"
       inkscape:label=""
       inkscape:locked="false"
       inkscape:color="rgb(0,0,255)" />
    <sodipodi:guide
       position="-11.677147,18.500001"
       orientation="0,1"
       id="guide894"
       inkscape:label=""
       inkscape:locked="false"
       inkscape:color="rgb(0,0,255)" />
    <sodipodi:guide
       position="5.0800002,98.519268"
       orientation="-1,0"
       id="guide905"
       inkscape:label=""
       inkscape:locked="false"
       inkscape:color="rgb(0,0,255)" />
  </sodipodi:namedview>
  <metadata
     id="metadata5">
    <rdf:RDF>
      <cc:Work
         rdf:about="">
        <dc:format>image/svg+xml</dc:format>
        <dc:type
           rdf:resource="http://purl.org/dc/dcmitype/StillImage" />
        <dc:title />
      </cc:Work>
    </rdf:RDF>
  </metadata>
  <g
     transform="translate(0,-168.5)"
     id="layer1"
     inkscape:groupmode="layer"
     inkscape:label="Layer 1"
     style="display:inline">
    <rect
       style="display:inline;opacity:1;fill:#bbbbb0;fill-opacity:1;stroke:none;stroke-width:1.131;stroke-miterlimit:4;stroke-dasharray:none"
       id="rect838"
       width="10.16"
       height="128.5"
       x="-5.5511151e-17"
       y="168.5" />
    <rect
       rx="0.80000001"
       ry="0.80000019"
       y="202"
       x="0.77999979"
       height="13"
       width="8.6000004"
       id="rect912"
       style="fill:#555d50;fill-opacity:1;stroke:none;stroke-width:0.829455;stroke-opacity:0.25" />
    <text
       xml:space="preserve"
       style="font-weight:bold;font-stretch:condensed;font-size:2.82223px;line-height:1.25;font-family:'PT Sans Narrow';-inkscape-font-specification:'PT Sans Narrow, Bold Condensed';stroke-width:0.264583"
       x="2.0529213"
       y="233.73691"
       id="text64"><tspan
         sodipodi:role="line"
         id="tspan62"
         x="2.0529213"
         y="233.73691"
         style="stroke-width:0.264583" /></text>
    <g
       style="font-weight:bold;font-stretch:condensed;font-size:2.82223px;line-height:1.25;font-family:'PT Sans Narrow';-inkscape-font-specification:'PT Sans Narrow, Bold Condensed';fill:#ffffff;stroke-width:0.264583"
       id="text883"
       aria-label="Trig"
       transform="translate(9.3600333,-1)">
      <path
         id="path886"
         style="fill:#ffffff;stroke-width:0.264583"
         d="M 4.5395481,276.8556 H 4.0710579 v 1.64818 H 3.7154569 V 276.8556 H 3.2469667 v -0.32738 h 1.2925814 z"
         inkscape:connector-curvature="0" />
      <path
         id="path888"
         style="fill:#ffffff;stroke-width:0.264583"
         d="m 5.1068123,277.42569 q -0.067733,-0.0254 -0.1241781,-0.0254 -0.0762,0 -0.1326449,0.0423 -0.053622,0.0423 -0.073378,0.11853 v 0.94262 H 4.440766 v -1.41111 h 0.2568229 l 0.039511,0.16933 h 0.011289 q 0.036689,-0.0931 0.1044225,-0.14393 0.070556,-0.0536 0.1608671,-0.0536 0.067734,0 0.1326448,0.0282 z"
         inkscape:connector-curvature="0" />
      <path
         id="path890"
         style="fill:#ffffff;stroke-width:0.264583"
         d="M 5.2958996,277.09267 H 5.631745 v 1.41111 H 5.2958996 Z m -0.039511,-0.39794 q 0,-0.0847 0.053622,-0.13828 0.053622,-0.0564 0.1524004,-0.0564 0.098778,0 0.1580449,0.0536 0.059267,0.0536 0.059267,0.14111 0,0.0875 -0.059267,0.13829 -0.059267,0.0508 -0.1580449,0.0508 -0.098778,0 -0.1524004,-0.0508 -0.053622,-0.0536 -0.053622,-0.13829 z"
         inkscape:connector-curvature="0" />
      <path
         id="path892"
         style="fill:#ffffff;stroke-width:0.264583"
         d="m 6.9130332,278.50378 q 0,0.30763 -0.1411115,0.45156 -0.1411115,0.14676 -0.39229,0.14676 -0.1749783,0 -0.2737563,-0.0282 -0.098778,-0.0254 -0.1524005,-0.0564 l 0.070556,-0.28505 q 0.062089,0.0254 0.1326448,0.048 0.073378,0.0226 0.172156,0.0226 0.1439338,0 0.1975561,-0.079 0.056445,-0.0762 0.056445,-0.23425 v -0.0762 h -0.00847 q -0.039511,0.0564 -0.1072448,0.0847 -0.064911,0.0282 -0.1693338,0.0282 -0.2229562,0 -0.3358454,-0.16651 -0.1100669,-0.16933 -0.1100669,-0.5334 0,-0.39229 0.1524004,-0.57856 0.1552226,-0.18627 0.4402679,-0.18627 0.1524004,0 0.2737563,0.0254 0.1213559,0.0226 0.1947339,0.0564 z m -0.5221126,-0.26529 q 0.0762,0 0.1185337,-0.0367 0.045156,-0.0367 0.067734,-0.10443 v -0.70555 q -0.031045,-0.0141 -0.070556,-0.0226 -0.036689,-0.008 -0.087489,-0.008 -0.1044225,0 -0.1636893,0.1016 -0.056445,0.1016 -0.056445,0.34996 0,0.42615 0.1919116,0.42615 z"
         inkscape:connector-curvature="0" />
    </g>
    <rect
       style="opacity:0.356366;fill:#ffffff;stroke:#ff0000;stroke-width:0.0649999"
       id="rect885"
       width="0.94890845"
       height="7.9118319"
       x="31.425222"
       y="245.58817" />
    <g
       aria-label="GRANDE"
       id="text2569"
       style="font-size:1.76389px;line-height:1.25;font-family:'Source Sans Pro';-inkscape-font-specification:'Source Sans Pro, Normal';text-align:center;letter-spacing:0.370417px;text-anchor:middle;stroke-width:0.264583"
       transform="translate(0,-0.83024)">
      <path
         d="m 1.6963961,292.52968 c 0.1552223,0 0.2822224,-0.0564 0.3580696,-0.13405 v -0.48684 H 1.6734655 v 0.12171 h 0.2451807 v 0.30163 c -0.045861,0.0423 -0.1252362,0.067 -0.208139,0.067 -0.2469446,0 -0.3827641,-0.18168 -0.3827641,-0.47272 0,-0.28751 0.1481667,-0.46567 0.3810002,-0.46567 0.1164167,0 0.1905001,0.0441 0.2487085,0.10407 l 0.081139,-0.0917 c -0.067028,-0.0723 -0.1728612,-0.14287 -0.3333752,-0.14287 -0.3069168,0 -0.5309309,0.22754 -0.5309309,0.59972 0,0.37747 0.2169585,0.59972 0.5221114,0.59972 z"
         style="stroke-width:0.264583"
         id="path2571" />
      <path
         d="m 2.7000468,292.50851 h 0.1481668 v -0.48859 h 0.208139 l 0.2786946,0.48859 h 0.1675696 l -0.2945696,-0.50447 c 0.1569862,-0.0406 0.2592918,-0.1464 0.2592918,-0.32632 0,-0.24165 -0.1693334,-0.32632 -0.4056947,-0.32632 H 2.7000468 Z m 0.1481668,-0.60854 v -0.42862 h 0.192264 c 0.1799168,0 0.2786946,0.0547 0.2786946,0.20637 0,0.14817 -0.098778,0.22225 -0.2786946,0.22225 z"
         style="stroke-width:0.264583"
         id="path2573" />
      <path
         d="m 4.2699053,291.86293 c 0.04057,-0.12876 0.077611,-0.25576 0.112889,-0.38982 h 0.00706 c 0.037042,0.13406 0.074083,0.26106 0.1164168,0.38982 l 0.054681,0.17463 H 4.2152247 Z m -0.3545419,0.64558 h 0.1499307 l 0.111125,-0.35101 H 4.5979889 L 4.70735,292.50851 H 4.8643363 L 4.4745166,291.3514 H 4.3051831 Z"
         style="stroke-width:0.264583"
         id="path2575" />
      <path
         d="M 5.3987927,292.50851 H 5.53814 v -0.60854 c 0,-0.11994 -0.010583,-0.24518 -0.019403,-0.3616 h 0.00706 c 0.038806,0.0847 0.081139,0.1711 0.1252362,0.24871 l 0.4127502,0.72143 H 6.2225293 V 291.3514 H 6.083182 v 0.60325 c 0,0.11995 0.010583,0.24695 0.019403,0.36689 h -0.00706 c -0.040569,-0.0847 -0.081139,-0.1711 -0.1252361,-0.24871 L 5.5575428,291.3514 H 5.3987927 Z"
         style="stroke-width:0.264583"
         id="path2577" />
      <path
         d="m 6.9086818,292.50851 h 0.2963335 c 0.3492503,0 0.5397504,-0.21519 0.5397504,-0.58384 0,-0.36689 -0.1905001,-0.57327 -0.5468059,-0.57327 h -0.289278 z m 0.1481668,-0.1217 v -0.9137 h 0.1305278 c 0.2698752,0 0.4039309,0.16051 0.4039309,0.45156 0,0.2928 -0.1340557,0.46214 -0.4039309,0.46214 z"
         style="stroke-width:0.264583"
         id="path2579" />
      <path
         d="m 8.3656535,292.50851 h 0.6843893 v -0.12523 H 8.5138202 v -0.41981 h 0.4374447 v -0.12523 H 8.5138202 v -0.3616 H 9.0324039 V 291.3514 H 8.3656535 Z"
         style="stroke-width:0.264583"
         id="path2581" />
    </g>
    <g
       style="font-weight:bold;font-stretch:condensed;font-size:4.9389px;line-height:1.25;font-family:'PT Sans Narrow';-inkscape-font-specification:'PT Sans Narrow, Bold Condensed';letter-spacing:0px;word-spacing:0px;stroke-width:0.264583"
       id="text901"
       aria-label="Freq">
      <path
         id="path897"
         style="stroke-width:0.264583"
         d="m 1.3857091,174 h 1.728615 v 0.57291 H 2.0080105 v 0.89888 h 1.0174134 v 0.57291 H 2.0080105 v 1.41253 H 1.3857091 Z" />
      <path
         id="path899"
         style="stroke-width:0.264583"
         d="m 4.6108044,175.57057 q -0.1185336,-0.0445 -0.2173116,-0.0445 -0.1333503,0 -0.2321283,0.0741 -0.093839,0.0741 -0.1284114,0.20744 v 1.64959 H 3.445224 v -2.46945 h 0.4494399 l 0.069145,0.29633 h 0.019756 q 0.064206,-0.16298 0.1827393,-0.25188 0.1234725,-0.0938 0.2815173,-0.0938 0.1185336,0 0.2321283,0.0494 z" />
      <path
         id="path905"
         style="stroke-width:0.264583"
         d="m 6.5616661,177.27449 q -0.1234725,0.10866 -0.3358452,0.1778 -0.2123727,0.0692 -0.444501,0.0692 -0.2568228,0 -0.444501,-0.0889 -0.1827393,-0.0889 -0.3012729,-0.25683 -0.1185336,-0.16792 -0.1778004,-0.40499 -0.054328,-0.242 -0.054328,-0.54822 0,-0.66675 0.2617617,-0.98284 0.2667006,-0.32102 0.7358961,-0.32102 0.1580448,0 0.3062118,0.0494 0.148167,0.0445 0.2617617,0.15805 0.1185336,0.10865 0.1876782,0.29633 0.074083,0.18274 0.074083,0.46426 0,0.10866 -0.014817,0.23213 -0.00988,0.12347 -0.034572,0.2667 H 5.381269 q 0.00988,0.30621 0.1284114,0.46919 0.1185336,0.16299 0.3802953,0.16299 0.1580448,0 0.2864562,-0.0494 0.1333503,-0.0494 0.2024949,-0.10372 z M 5.7911977,175.4224 q -0.1876782,0 -0.2815173,0.15311 -0.093839,0.14817 -0.1086558,0.41981 h 0.6815682 q 0.014817,-0.28152 -0.059267,-0.42475 -0.074083,-0.14817 -0.2321283,-0.14817 z" />
      <path
         id="path907"
         style="stroke-width:0.264583"
         d="M 8.7742909,178.44501 H 8.1865618 v -1.16064 h -0.019756 q -0.069145,0.10865 -0.1827393,0.17286 -0.1086558,0.0691 -0.296334,0.0691 -0.3654786,0 -0.5679735,-0.31115 -0.2024949,-0.31115 -0.2024949,-0.94333 0,-0.66181 0.2815173,-0.99765 0.2815173,-0.34079 0.8001018,-0.34079 0.2222505,0 0.4346232,0.0445 0.2173116,0.0444 0.3407841,0.0988 z m -0.5877291,-2.92877 q -0.1037169,-0.0593 -0.2765784,-0.0593 -0.1926171,0 -0.2913951,0.18767 -0.093839,0.18274 -0.093839,0.60255 0,0.75565 0.3358452,0.75565 0.1333503,0 0.2074338,-0.0642 0.079022,-0.0692 0.1185336,-0.19262 z" />
    </g>
    <g
       transform="translate(-0.300445,-4.74999)"
       style="font-weight:bold;font-stretch:condensed;font-size:2.82223px;line-height:1.25;font-family:'PT Sans Narrow';-inkscape-font-specification:'PT Sans Narrow, Bold Condensed';letter-spacing:0px;word-spacing:0px;stroke-width:0.264583"
       id="text916"
       aria-label="Thresh">
      <path
         id="path922"
         style="stroke-width:0.264583"
         d="M 3.3160264,222.82737 H 2.8475362 v 1.64819 h -0.355601 v -1.64819 H 2.023445 v -0.32738 h 1.2925814 z" />
      <path
         id="path924"
         style="stroke-width:0.264583"
         d="m 4.1598704,224.47556 v -0.85232 q 0,-0.1524 -0.036689,-0.22013 -0.033867,-0.0677 -0.1270003,-0.0677 -0.067733,0 -0.1241781,0.048 -0.056445,0.048 -0.0762,0.12136 v 0.97085 H 3.4599574 v -1.97557 h 0.3358453 v 0.69145 h 0.00847 q 0.056445,-0.0734 0.1354671,-0.11853 0.081845,-0.0452 0.2032005,-0.0452 0.087489,0 0.1524005,0.0254 0.064911,0.0254 0.1100669,0.0847 0.045156,0.0593 0.067734,0.16087 0.022578,0.0988 0.022578,0.25117 v 0.9257 z" />
      <path
         id="path926"
         style="stroke-width:0.264583"
         d="m 5.3931833,223.39746 q -0.067733,-0.0254 -0.1241781,-0.0254 -0.0762,0 -0.1326449,0.0423 -0.053622,0.0423 -0.073378,0.11853 v 0.94263 H 4.727137 v -1.41112 h 0.2568229 l 0.039511,0.16933 h 0.011289 q 0.036689,-0.0931 0.1044225,-0.14393 0.070556,-0.0536 0.1608671,-0.0536 0.067734,0 0.1326448,0.0282 z" />
      <path
         id="path928"
         style="stroke-width:0.264583"
         d="m 6.507962,224.37113 q -0.070556,0.0621 -0.1919117,0.1016 -0.1213559,0.0395 -0.2540007,0.0395 -0.146756,0 -0.2540007,-0.0508 -0.1044225,-0.0508 -0.172156,-0.14675 -0.067734,-0.096 -0.1016003,-0.23142 -0.031045,-0.13829 -0.031045,-0.31327 0,-0.381 0.1495782,-0.56163 0.1524005,-0.18344 0.4205123,-0.18344 0.090311,0 0.1749783,0.0282 0.084667,0.0254 0.1495782,0.0903 0.067734,0.0621 0.1072447,0.16934 0.042333,0.10442 0.042333,0.26529 0,0.0621 -0.00847,0.13264 -0.00564,0.0706 -0.019756,0.1524 H 5.833449 q 0.00564,0.17498 0.073378,0.26811 0.067734,0.0931 0.2173118,0.0931 0.090311,0 0.1636893,-0.0282 0.0762,-0.0282 0.1157114,-0.0593 z M 6.0676941,223.3128 q -0.1072448,0 -0.1608672,0.0875 -0.053622,0.0847 -0.062089,0.23989 h 0.3894677 q 0.00847,-0.16087 -0.033867,-0.24272 -0.042333,-0.0847 -0.1326448,-0.0847 z" />
      <path
         id="path930"
         style="stroke-width:0.264583"
         d="m 7.2360958,224.1002 q 0,-0.0593 -0.039511,-0.0988 -0.036689,-0.0423 -0.095956,-0.0762 -0.059267,-0.0367 -0.1270003,-0.0734 -0.064911,-0.0367 -0.1241782,-0.0903 -0.059267,-0.0536 -0.098778,-0.12982 -0.036689,-0.0762 -0.036689,-0.19191 0,-0.19756 0.1072447,-0.3048 0.1072448,-0.10725 0.3160898,-0.10725 0.1241781,0 0.2342451,0.0282 0.110067,0.0254 0.1749783,0.0649 l -0.079022,0.25965 q -0.053622,-0.0226 -0.1298226,-0.0423 -0.0762,-0.0226 -0.1495781,-0.0226 -0.1382893,0 -0.1382893,0.11571 0,0.0536 0.036689,0.0903 0.039511,0.0339 0.098778,0.0677 0.059267,0.0339 0.1241781,0.0705 0.067734,0.0367 0.1270004,0.0931 0.059267,0.0536 0.095956,0.13265 0.039511,0.079 0.039511,0.19473 0,0.19474 -0.1185336,0.31327 -0.1185337,0.11853 -0.3527788,0.11853 -0.1157114,0 -0.2286006,-0.0282 -0.110067,-0.0282 -0.1778005,-0.0734 l 0.093134,-0.27093 q 0.059267,0.0339 0.135467,0.0593 0.079023,0.0254 0.1636894,0.0254 0.064911,0 0.1072447,-0.0282 0.042333,-0.031 0.042333,-0.0959 z" />
      <path
         id="path932"
         style="stroke-width:0.264583"
         d="m 8.4496504,224.47556 v -0.85232 q 0,-0.1524 -0.036689,-0.22013 -0.033867,-0.0677 -0.1270004,-0.0677 -0.067733,0 -0.1241781,0.048 -0.056445,0.048 -0.0762,0.12136 v 0.97085 H 7.7497374 v -1.97557 h 0.3358454 v 0.69145 h 0.00847 q 0.056445,-0.0734 0.135467,-0.11853 0.081845,-0.0452 0.2032006,-0.0452 0.087489,0 0.1524004,0.0254 0.064911,0.0254 0.110067,0.0847 0.045156,0.0593 0.067734,0.16087 0.022578,0.0988 0.022578,0.25117 v 0.9257 z" />
    </g>
    <g
       aria-label="V/Oct"
       id="text903"
       style="font-weight:bold;font-stretch:condensed;font-size:2.82223px;line-height:1.25;font-family:'PT Sans Narrow';-inkscape-font-specification:'PT Sans Narrow, Bold Condensed';text-align:center;text-anchor:middle;fill:#fffff0;fill-opacity:1;stroke-width:0.264583"
       transform="translate(0,-1)">
      <path
         d="m 2.901245,205.69945 0.039511,0.33867 h 0.011289 l 0.045156,-0.34149 0.2878674,-1.15712 H 3.660425 l -0.5983127,1.98968 H 2.7911781 l -0.6039573,-1.98968 h 0.4205123 z"
         style="fill:#fffff0;fill-opacity:1;stroke-width:0.264583"
         id="path925" />
      <path
         d="m 4.4139558,204.50565 0.2568229,0.0988 -0.8269134,2.30576 -0.2596452,-0.0988 z"
         style="fill:#fffff0;fill-opacity:1;stroke-width:0.264583"
         id="path927" />
      <path
         d="m 4.7018205,205.5273 q 0,-0.50236 0.172156,-0.76483 Q 5.0461325,204.5 5.3989113,204.5 q 0.183445,0 0.3160898,0.0734 0.1326448,0.0706 0.2173117,0.20602 0.084667,0.13265 0.1241781,0.32456 0.042333,0.18909 0.042333,0.42334 0,0.50235 -0.1778005,0.76482 -0.1749783,0.26247 -0.5221126,0.26247 -0.1862672,0 -0.318912,-0.0706 -0.1298226,-0.0734 -0.2144895,-0.20602 -0.084667,-0.13547 -0.1241781,-0.32456 -0.039511,-0.19191 -0.039511,-0.42615 z m 0.3725343,0 q 0,0.14957 0.016933,0.2794 0.016933,0.127 0.056445,0.22013 0.039511,0.0931 0.098778,0.14676 0.062089,0.0536 0.1524004,0.0536 0.1636894,0 0.245534,-0.16651 0.081845,-0.16651 0.081845,-0.5334 0,-0.14394 -0.016933,-0.27094 -0.016933,-0.12982 -0.056445,-0.22296 -0.036689,-0.0959 -0.098778,-0.14957 -0.062089,-0.0564 -0.1552227,-0.0564 -0.3245565,0 -0.3245565,0.69992 z"
         style="fill:#fffff0;fill-opacity:1;stroke-width:0.264583"
         id="path929" />
      <path
         d="m 7.1345814,206.43888 q -0.070556,0.0564 -0.1693338,0.0847 -0.098778,0.0282 -0.1975561,0.0282 -0.1439337,0 -0.2427118,-0.0508 -0.095956,-0.0536 -0.1580449,-0.14957 -0.062089,-0.0988 -0.090311,-0.23425 -0.0254,-0.13829 -0.0254,-0.30762 0,-0.36971 0.1326448,-0.55598 0.1326448,-0.18627 0.3894678,-0.18627 0.1270003,0 0.2060228,0.0226 0.081845,0.0226 0.1439337,0.0564 l -0.079022,0.2794 q -0.0508,-0.0254 -0.098778,-0.0367 -0.045156,-0.0141 -0.110067,-0.0141 -0.1185336,0 -0.1778005,0.10443 -0.059267,0.1016 -0.059267,0.3302 0,0.19191 0.059267,0.31327 0.062089,0.12135 0.1947339,0.12135 0.070556,0 0.1185337,-0.0169 0.0508,-0.0198 0.093134,-0.048 z"
         style="fill:#fffff0;fill-opacity:1;stroke-width:0.264583"
         id="path931" />
      <path
         d="m 7.1797326,205.10396 h 0.1552226 v -0.26529 l 0.3358454,-0.10442 v 0.36971 H 7.944557 v 0.29916 H 7.6708006 v 0.61524 q 0,0.12136 0.022578,0.17216 0.0254,0.0508 0.087489,0.0508 0.042334,0 0.0762,-0.008 0.033867,-0.008 0.073378,-0.0254 l 0.042333,0.26811 q -0.062089,0.031 -0.1439338,0.0508 -0.081845,0.0226 -0.172156,0.0226 -0.1608671,0 -0.2427118,-0.0931 -0.079023,-0.0931 -0.079023,-0.31327 v -0.73942 H 7.1797326 Z"
         style="fill:#fffff0;fill-opacity:1;stroke-width:0.264583"
         id="path933" />
    </g>
    <g
       aria-label="Signal"
       id="text909"
       style="font-weight:bold;font-stretch:condensed;font-size:2.82223px;line-height:1.25;font-family:'PT Sans Narrow';-inkscape-font-specification:'PT Sans Narrow, Bold Condensed';text-align:center;text-anchor:middle;stroke-width:0.264583"
       transform="translate(0,-1.00008)">
      <path
         d="m 2.7474352,191.00707 q 0,-0.0903 -0.053622,-0.1524 -0.053622,-0.0649 -0.135467,-0.12135 -0.079023,-0.0564 -0.1749783,-0.11571 -0.093134,-0.0593 -0.1749783,-0.13829 -0.079022,-0.079 -0.1326448,-0.18627 -0.053622,-0.10724 -0.053622,-0.26247 0,-0.14393 0.042334,-0.24271 0.045156,-0.1016 0.1213559,-0.16369 0.0762,-0.0649 0.1806227,-0.0931 0.1044225,-0.031 0.2229562,-0.031 0.1439337,0 0.2681118,0.0282 0.1241782,0.0282 0.2060228,0.0762 l -0.1100669,0.31326 q -0.047978,-0.0339 -0.1439338,-0.0621 -0.093134,-0.0282 -0.2032005,-0.0282 -0.110067,0 -0.1693338,0.0452 -0.059267,0.0452 -0.059267,0.13264 0,0.079 0.053622,0.14111 0.053622,0.0593 0.1326448,0.11572 0.081845,0.0564 0.1749783,0.11853 0.095956,0.0593 0.1749782,0.14111 0.081845,0.079 0.1354671,0.18909 0.053622,0.10724 0.053622,0.25682 0,0.14958 -0.045156,0.25965 -0.042333,0.11007 -0.1241781,0.18344 -0.079023,0.0706 -0.1919117,0.10725 -0.1128892,0.0367 -0.2511785,0.0367 -0.1749782,0 -0.307623,-0.0339 -0.1298226,-0.0339 -0.2003784,-0.0762 l 0.1157114,-0.31891 q 0.056445,0.0339 0.1552227,0.0677 0.098778,0.0339 0.2116673,0.0339 0.282223,0 0.282223,-0.22014 z"
         style="stroke-width:0.264583"
         id="path911" />
      <path
         d="m 3.3175233,190.10396 h 0.3358454 v 1.41112 H 3.3175233 Z m -0.039511,-0.39793 q 0,-0.0847 0.053622,-0.13829 0.053622,-0.0564 0.1524004,-0.0564 0.098778,0 0.1580449,0.0536 0.059267,0.0536 0.059267,0.14112 0,0.0875 -0.059267,0.13829 -0.059267,0.0508 -0.1580449,0.0508 -0.098778,0 -0.1524004,-0.0508 -0.053622,-0.0536 -0.053622,-0.13829 z"
         style="stroke-width:0.264583"
         id="path913" />
      <path
         d="m 4.9346569,191.51508 q 0,0.30762 -0.1411115,0.45155 -0.1411115,0.14676 -0.39229,0.14676 -0.1749783,0 -0.2737563,-0.0282 -0.098778,-0.0254 -0.1524004,-0.0565 l 0.070556,-0.28504 q 0.062089,0.0254 0.1326448,0.048 0.073378,0.0226 0.1721561,0.0226 0.1439337,0 0.1975561,-0.079 0.056445,-0.0762 0.056445,-0.23425 v -0.0762 h -0.00847 q -0.039511,0.0565 -0.1072448,0.0847 -0.064911,0.0282 -0.1693338,0.0282 -0.2229561,0 -0.3358454,-0.16651 -0.1100669,-0.16933 -0.1100669,-0.5334 0,-0.39229 0.1524004,-0.57856 0.1552227,-0.18626 0.4402679,-0.18626 0.1524004,0 0.2737563,0.0254 0.1213559,0.0226 0.1947339,0.0564 z m -0.5221126,-0.26529 q 0.0762,0 0.1185337,-0.0367 0.045156,-0.0367 0.067734,-0.10443 v -0.70555 q -0.031045,-0.0141 -0.070556,-0.0226 -0.036689,-0.008 -0.087489,-0.008 -0.1044225,0 -0.1636893,0.1016 -0.056445,0.1016 -0.056445,0.34996 0,0.42616 0.1919116,0.42616 z"
         style="stroke-width:0.264583"
         id="path915" />
      <path
         d="m 5.8744563,191.51508 v -0.85796 q 0,-0.15522 -0.036689,-0.21731 -0.036689,-0.0621 -0.1241781,-0.0621 -0.073378,0 -0.1270004,0.0451 -0.053622,0.0452 -0.0762,0.11289 v 0.97932 H 5.1745433 v -1.41112 h 0.2681118 l 0.039511,0.16369 h 0.00847 q 0.0508,-0.0818 0.1382893,-0.13829 0.087489,-0.0593 0.2286006,-0.0593 0.084667,0 0.1495782,0.0254 0.067734,0.0254 0.1128892,0.0847 0.045156,0.0565 0.067734,0.15522 0.022578,0.096 0.022578,0.23989 v 0.93981 z"
         style="stroke-width:0.264583"
         id="path917" />
      <path
         d="m 6.444545,190.18863 q 0.084667,-0.0508 0.2116672,-0.0819 0.1270004,-0.031 0.2878675,-0.031 0.2398896,0 0.3330231,0.12418 0.095956,0.12417 0.095956,0.35278 0,0.13264 -0.00847,0.26246 -0.00564,0.127 -0.00847,0.25118 -0.00282,0.12136 0.00282,0.23707 0.00847,0.11289 0.039511,0.21449 H 7.1247024 l -0.053622,-0.17216 h -0.011289 q -0.045156,0.0819 -0.1270003,0.13547 -0.081845,0.0536 -0.2060228,0.0536 -0.1665116,0 -0.2624674,-0.11007 -0.095956,-0.11288 -0.095956,-0.29915 0,-0.254 0.1806227,-0.36125 0.1806227,-0.10724 0.4882458,-0.0903 0.014111,-0.16369 -0.022578,-0.23707 -0.033867,-0.0734 -0.1495782,-0.0734 -0.084667,0 -0.1749783,0.0198 -0.090311,0.0198 -0.1608671,0.0564 z m 0.4035789,1.05833 q 0.0762,0 0.1241781,-0.0367 0.047978,-0.0395 0.070556,-0.0847 v -0.23425 q -0.064911,-0.008 -0.1241782,-0.003 -0.059267,0.006 -0.1044225,0.0254 -0.045156,0.0198 -0.073378,0.0593 -0.0254,0.0367 -0.0254,0.096 0,0.0875 0.033867,0.13265 0.036689,0.0452 0.098778,0.0452 z"
         style="stroke-width:0.264583"
         id="path919" />
      <path
         d="m 7.9487886,191.05787 q 0,0.0988 0.019756,0.14112 0.019756,0.0423 0.064911,0.0423 0.0254,0 0.0508,-0.006 0.028222,-0.006 0.062089,-0.0197 l 0.031045,0.27093 q -0.033867,0.0226 -0.1157114,0.0423 -0.081845,0.0197 -0.1665116,0.0197 -0.1411115,0 -0.2116673,-0.0705 -0.070556,-0.0706 -0.070556,-0.23989 v -1.69899 h 0.3358454 z"
         style="stroke-width:0.264583"
         id="path921" />
    </g>
    <g
       transform="translate(-8.3171853,4.89831)"
       style="font-weight:bold;font-stretch:condensed;font-size:2.82223px;line-height:1.25;font-family:'PT Sans Narrow';-inkscape-font-specification:'PT Sans Narrow, Bold Condensed';text-align:center;text-anchor:middle;stroke-width:0.264583"
       id="text898"
       aria-label="Smooth">
      <path
         id="path900"
         style="stroke-width:0.264583"
         d="m 10.388683,238.85868 q 0,-0.0903 -0.05362,-0.1524 -0.05362,-0.0649 -0.135467,-0.12135 -0.07902,-0.0565 -0.174979,-0.11572 -0.093133,-0.0593 -0.1749779,-0.13828 -0.079023,-0.079 -0.1326449,-0.18627 -0.053622,-0.10725 -0.053622,-0.26247 0,-0.14393 0.042333,-0.24271 0.045156,-0.1016 0.1213559,-0.16369 0.0762,-0.0649 0.1806229,-0.0931 0.104422,-0.031 0.222956,-0.031 0.143934,0 0.268112,0.0282 0.124178,0.0282 0.206023,0.0762 l -0.110067,0.31327 q -0.04798,-0.0339 -0.143934,-0.0621 -0.09313,-0.0282 -0.203201,-0.0282 -0.110066,0 -0.169333,0.0452 -0.05927,0.0451 -0.05927,0.13264 0,0.079 0.05362,0.14111 0.05362,0.0593 0.132645,0.11571 0.08185,0.0565 0.174978,0.11854 0.09596,0.0593 0.174979,0.14111 0.08184,0.079 0.135467,0.18909 0.05362,0.10724 0.05362,0.25682 0,0.14958 -0.04516,0.25965 -0.04233,0.11006 -0.124178,0.18344 -0.07902,0.0706 -0.191911,0.10725 -0.11289,0.0367 -0.251179,0.0367 -0.1749783,0 -0.3076231,-0.0339 -0.1298226,-0.0339 -0.2003784,-0.0762 l 0.1157115,-0.31891 q 0.056445,0.0339 0.1552226,0.0677 0.098778,0.0339 0.2116674,0.0339 0.282223,0 0.282223,-0.22014 z" />
      <path
         id="path902"
         style="stroke-width:0.264583"
         d="m 11.582484,239.36668 v -0.82126 q 0,-0.17781 -0.02822,-0.24554 -0.02822,-0.0705 -0.110067,-0.0705 -0.06773,0 -0.112889,0.0452 -0.04233,0.0423 -0.06491,0.10442 v 0.98778 h -0.335845 v -1.41111 h 0.259645 l 0.04233,0.16933 h 0.0085 q 0.05362,-0.0875 0.132645,-0.14393 0.08184,-0.0593 0.214489,-0.0593 0.110067,0 0.177801,0.048 0.07056,0.048 0.110067,0.16933 0.05362,-0.1016 0.141111,-0.15804 0.08749,-0.0593 0.206023,-0.0593 0.09313,0 0.158045,0.0254 0.06773,0.0226 0.107245,0.0819 0.04233,0.0593 0.06209,0.16369 0.01976,0.1016 0.01976,0.25964 v 0.9144 h -0.335846 v -0.85795 q 0,-0.14394 -0.0254,-0.21167 -0.0254,-0.0677 -0.112889,-0.0677 -0.07056,0 -0.115712,0.0423 -0.04233,0.0395 -0.06209,0.11007 v 0.98495 z" />
      <path
         id="path904"
         style="stroke-width:0.264583"
         d="m 12.750882,238.66113 q 0,-0.37536 0.146756,-0.55881 0.146756,-0.18344 0.409224,-0.18344 0.282223,0 0.420512,0.18627 0.138289,0.18626 0.138289,0.55598 0,0.37818 -0.146756,0.56162 -0.146756,0.18062 -0.412045,0.18062 -0.55598,0 -0.55598,-0.74224 z m 0.347135,0 q 0,0.21166 0.04798,0.32738 0.04798,0.11571 0.160868,0.11571 0.107244,0 0.158044,-0.0988 0.05362,-0.1016 0.05362,-0.34431 0,-0.21732 -0.04798,-0.3302 -0.04798,-0.11289 -0.163689,-0.11289 -0.09878,0 -0.155223,0.1016 -0.05362,0.0988 -0.05362,0.34149 z" />
      <path
         id="path906"
         style="stroke-width:0.264583"
         d="m 14.006774,238.66113 q 0,-0.37536 0.146756,-0.55881 0.146756,-0.18344 0.409223,-0.18344 0.282223,0 0.420512,0.18627 0.138289,0.18626 0.138289,0.55598 0,0.37818 -0.146755,0.56162 -0.146756,0.18062 -0.412046,0.18062 -0.555979,0 -0.555979,-0.74224 z m 0.347134,0 q 0,0.21166 0.04798,0.32738 0.04798,0.11571 0.160867,0.11571 0.107245,0 0.158045,-0.0988 0.05362,-0.1016 0.05362,-0.34431 0,-0.21732 -0.04798,-0.3302 -0.04798,-0.11289 -0.163689,-0.11289 -0.09878,0 -0.155223,0.1016 -0.05362,0.0988 -0.05362,0.34149 z" />
      <path
         id="path908"
         style="stroke-width:0.264583"
         d="m 15.203399,237.95557 h 0.155222 v -0.26529 l 0.335846,-0.10442 v 0.36971 h 0.273756 v 0.29916 h -0.273756 v 0.61524 q 0,0.12136 0.02258,0.17216 0.0254,0.0508 0.08749,0.0508 0.04233,0 0.0762,-0.008 0.03387,-0.008 0.07338,-0.0254 l 0.04233,0.26811 q -0.06209,0.031 -0.143934,0.0508 -0.08184,0.0226 -0.172156,0.0226 -0.160867,0 -0.242711,-0.0931 -0.07902,-0.0931 -0.07902,-0.31327 v -0.73942 h -0.155222 z" />
      <path
         id="path910"
         style="stroke-width:0.264583"
         d="m 16.834643,239.36668 v -0.85231 q 0,-0.1524 -0.03669,-0.22013 -0.03387,-0.0677 -0.127,-0.0677 -0.06773,0 -0.124178,0.048 -0.05645,0.048 -0.0762,0.12136 v 0.97084 H 16.13473 v -1.97556 h 0.335846 v 0.69145 h 0.0085 q 0.05645,-0.0734 0.135467,-0.11853 0.08184,-0.0452 0.203201,-0.0452 0.08749,0 0.1524,0.0254 0.06491,0.0254 0.110067,0.0847 0.04516,0.0593 0.06773,0.16086 0.02258,0.0988 0.02258,0.25118 v 0.92569 z" />
    </g>
  </g>
  <g
     style="display:none"
     inkscape:label="components"
     id="layer2"
     inkscape:groupmode="layer">
    <circle
       inkscape:label="CV_Out"
       cy="66.5"
       cx="5.0799999"
       id="circle908"
       style="fill:#0000ff;fill-rule:evenodd;stroke-width:0.264582"
       r="4" />
    <circle
       r="4"
       style="fill:#0000ff;fill-rule:evenodd;stroke-width:0.264582"
       id="circle912"
       cx="5.0799999"
       cy="56.25"
       inkscape:label="CV_Out" />
    <circle
       r="4"
       style="fill:#0000ff;fill-rule:evenodd;stroke-width:0.264582"
       id="circle920"
       cx="5.0799999"
       cy="42"
       inkscape:label="CV_Out" />
    <circle
       r="4"
       style="fill:#00ff00;fill-rule:evenodd;stroke-width:0.264582"
       id="circle922"
       cx="5.0799999"
       cy="27.000004"
       inkscape:label="CV_Out" />
    <circle
       inkscape:label="CV_Out"
       cy="80.75"
       cx="5.0799999"
       id="circle889"
       style="fill:#0000ff;fill-rule:evenodd;stroke-width:0.264582"
       r="4" />
    <circle
       r="4"
       style="fill:#0000ff;fill-rule:evenodd;stroke-width:0.264582"
       id="circle891"
       cx="5.0799999"
       cy="110"
       inkscape:label="CV_Out" />
    <g
       transform="translate(-0.300445,-162.99999)"
       style="font-weight:bold;font-stretch:condensed;font-size:2.82223px;line-height:1.25;font-family:'PT Sans Narrow';-inkscape-font-specification:'PT Sans Narrow, Bold Condensed';letter-spacing:0px;word-spacing:0px;display:inline;stroke-width:0.264583"
       id="g895"
       aria-label="Thresh">
      <path
         id="path882"
         style="stroke-width:0.264583"
         d="M 3.3160264,222.82737 H 2.8475362 v 1.64819 h -0.355601 v -1.64819 H 2.023445 v -0.32738 h 1.2925814 z" />
      <path
         id="path884"
         style="stroke-width:0.264583"
         d="m 4.1598704,224.47556 v -0.85232 q 0,-0.1524 -0.036689,-0.22013 -0.033867,-0.0677 -0.1270003,-0.0677 -0.067733,0 -0.1241781,0.048 -0.056445,0.048 -0.0762,0.12136 v 0.97085 H 3.4599574 v -1.97557 h 0.3358453 v 0.69145 h 0.00847 q 0.056445,-0.0734 0.1354671,-0.11853 0.081845,-0.0452 0.2032005,-0.0452 0.087489,0 0.1524005,0.0254 0.064911,0.0254 0.1100669,0.0847 0.045156,0.0593 0.067734,0.16087 0.022578,0.0988 0.022578,0.25117 v 0.9257 z" />
      <path
         id="path887"
         style="stroke-width:0.264583"
         d="m 5.3931833,223.39746 q -0.067733,-0.0254 -0.1241781,-0.0254 -0.0762,0 -0.1326449,0.0423 -0.053622,0.0423 -0.073378,0.11853 v 0.94263 H 4.727137 v -1.41112 h 0.2568229 l 0.039511,0.16933 h 0.011289 q 0.036689,-0.0931 0.1044225,-0.14393 0.070556,-0.0536 0.1608671,-0.0536 0.067734,0 0.1326448,0.0282 z" />
      <path
         id="path889"
         style="stroke-width:0.264583"
         d="m 6.507962,224.37113 q -0.070556,0.0621 -0.1919117,0.1016 -0.1213559,0.0395 -0.2540007,0.0395 -0.146756,0 -0.2540007,-0.0508 -0.1044225,-0.0508 -0.172156,-0.14675 -0.067734,-0.096 -0.1016003,-0.23142 -0.031045,-0.13829 -0.031045,-0.31327 0,-0.381 0.1495782,-0.56163 0.1524005,-0.18344 0.4205123,-0.18344 0.090311,0 0.1749783,0.0282 0.084667,0.0254 0.1495782,0.0903 0.067734,0.0621 0.1072447,0.16934 0.042333,0.10442 0.042333,0.26529 0,0.0621 -0.00847,0.13264 -0.00564,0.0706 -0.019756,0.1524 H 5.833449 q 0.00564,0.17498 0.073378,0.26811 0.067734,0.0931 0.2173118,0.0931 0.090311,0 0.1636893,-0.0282 0.0762,-0.0282 0.1157114,-0.0593 z M 6.0676941,223.3128 q -0.1072448,0 -0.1608672,0.0875 -0.053622,0.0847 -0.062089,0.23989 h 0.3894677 q 0.00847,-0.16087 -0.033867,-0.24272 -0.042333,-0.0847 -0.1326448,-0.0847 z" />
      <path
         id="path891"
         style="stroke-width:0.264583"
         d="m 7.2360958,224.1002 q 0,-0.0593 -0.039511,-0.0988 -0.036689,-0.0423 -0.095956,-0.0762 -0.059267,-0.0367 -0.1270003,-0.0734 -0.064911,-0.0367 -0.1241782,-0.0903 -0.059267,-0.0536 -0.098778,-0.12982 -0.036689,-0.0762 -0.036689,-0.19191 0,-0.19756 0.1072447,-0.3048 0.1072448,-0.10725 0.3160898,-0.10725 0.1241781,0 0.2342451,0.0282 0.110067,0.0254 0.1749783,0.0649 l -0.079022,0.25965 q -0.053622,-0.0226 -0.1298226,-0.0423 -0.0762,-0.0226 -0.1495781,-0.0226 -0.1382893,0 -0.1382893,0.11571 0,0.0536 0.036689,0.0903 0.039511,0.0339 0.098778,0.0677 0.059267,0.0339 0.1241781,0.0705 0.067734,0.0367 0.1270004,0.0931 0.059267,0.0536 0.095956,0.13265 0.039511,0.079 0.039511,0.19473 0,0.19474 -0.1185336,0.31327 -0.1185337,0.11853 -0.3527788,0.11853 -0.1157114,0 -0.2286006,-0.0282 -0.110067,-0.0282 -0.1778005,-0.0734 l 0.093134,-0.27093 q 0.059267,0.0339 0.135467,0.0593 0.079023,0.0254 0.1636894,0.0254 0.064911,0 0.1072447,-0.0282 0.042333,-0.031 0.042333,-0.0959 z" />
      <path
         id="path893"
         style="stroke-width:0.264583"
         d="m 8.4496504,224.47556 v -0.85232 q 0,-0.1524 -0.036689,-0.22013 -0.033867,-0.0677 -0.1270004,-0.0677 -0.067733,0 -0.1241781,0.048 -0.056445,0.048 -0.0762,0.12136 v 0.97085 H 7.7497374 v -1.97557 h 0.3358454 v 0.69145 h 0.00847 q 0.056445,-0.0734 0.135467,-0.11853 0.081845,-0.0452 0.2032006,-0.0452 0.087489,0 0.1524004,0.0254 0.064911,0.0254 0.110067,0.0847 0.045156,0.0593 0.067734,0.16087 0.022578,0.0988 0.022578,0.25117 v 0.9257 z" />
    </g>
  </g>
</svg>
