<?xml version="1.0" encoding="UTF-8" standalone="no"?>
<svg
   xmlns:dc="http://purl.org/dc/elements/1.1/"
   xmlns:cc="http://creativecommons.org/ns#"
   xmlns:rdf="http://www.w3.org/1999/02/22-rdf-syntax-ns#"
   xmlns:svg="http://www.w3.org/2000/svg"
   xmlns="http://www.w3.org/2000/svg"
   xmlns:sodipodi="http://sodipodi.sourceforge.net/DTD/sodipodi-0.dtd"
   xmlns:inkscape="http://www.inkscape.org/namespaces/inkscape"
   width="20.32mm"
   height="128.5mm"
   viewBox="0 0 20.32 128.5"
   version="1.1"
   id="svg8"
   inkscape:version="1.0 (4035a4fb49, 2020-05-01)"
   sodipodi:docname="Quant.svg">
  <defs
     id="defs2" />
  <sodipodi:namedview
     inkscape:snap-bbox-edge-midpoints="true"
     inkscape:snap-nodes="false"
     inkscape:object-nodes="false"
     inkscape:snap-others="false"
     inkscape:snap-grids="false"
     inkscape:bbox-paths="false"
     inkscape:bbox-nodes="false"
     id="base"
     pagecolor="#ffffff"
     bordercolor="#666666"
     borderopacity="1.0"
     inkscape:pageopacity="0.0"
     inkscape:pageshadow="2"
     inkscape:zoom="10.08741"
     inkscape:cx="19.974748"
     inkscape:cy="408.80068"
     inkscape:document-units="mm"
     inkscape:current-layer="layer1"
     showgrid="false"
     units="mm"
     showguides="true"
     inkscape:guide-bbox="true"
     inkscape:lockguides="false"
     inkscape:window-width="1639"
     inkscape:window-height="1017"
     inkscape:window-x="763"
     inkscape:window-y="196"
     inkscape:window-maximized="0"
     inkscape:document-rotation="0"
     inkscape:snap-bbox="true"
     inkscape:snap-bbox-midpoints="false"
     inkscape:snap-global="true">
    <sodipodi:guide
       position="5.0800002,80.319942"
       orientation="1,0"
       id="guide815"
       inkscape:locked="false"
       inkscape:label=""
       inkscape:color="rgb(0,0,255)" />
    <sodipodi:guide
       position="-1.8753815,28.5"
       orientation="0,1"
       id="guide817"
       inkscape:locked="false"
       inkscape:label=""
       inkscape:color="rgb(0,0,255)" />
    <sodipodi:guide
       position="-5.8866377,55.499999"
       orientation="0,1"
       id="guide819"
       inkscape:locked="false"
       inkscape:label=""
       inkscape:color="rgb(0,0,255)" />
    <sodipodi:guide
       inkscape:color="rgb(0,0,255)"
       inkscape:locked="false"
       inkscape:label=""
       id="guide837"
       orientation="0,1"
       position="-12.473215,98.500004" />
    <sodipodi:guide
       position="-9.0869999,15.5"
       orientation="0,1"
       id="guide875"
       inkscape:label=""
       inkscape:locked="false"
       inkscape:color="rgb(0,0,255)" />
    <sodipodi:guide
       inkscape:color="rgb(0,0,255)"
       inkscape:locked="false"
       inkscape:label=""
       id="guide883"
       orientation="-1,0"
       position="14.45,28.499999" />
    <sodipodi:guide
       inkscape:color="rgb(0,0,255)"
       inkscape:locked="false"
       inkscape:label=""
       id="guide891"
       orientation="0,1"
       position="20,79.499999" />
    <sodipodi:guide
       inkscape:color="rgb(0,0,255)"
       inkscape:locked="false"
       inkscape:label=""
       id="guide893"
       orientation="0,1"
       position="-0.45667893,31.5" />
    <sodipodi:guide
       inkscape:color="rgb(0,0,255)"
       inkscape:locked="false"
       inkscape:label=""
       id="guide895"
       orientation="0,1"
       position="5.0799999,87.499999" />
    <sodipodi:guide
       inkscape:color="rgb(0,0,255)"
       inkscape:locked="false"
       inkscape:label=""
       id="guide897"
       orientation="0,1"
       position="-17.238885,71.499999" />
    <sodipodi:guide
       inkscape:color="rgb(0,0,255)"
       inkscape:locked="false"
       inkscape:label=""
       id="guide899"
       orientation="0,1"
       position="-20.355093,63.499999" />
    <sodipodi:guide
       inkscape:color="rgb(0,0,255)"
       inkscape:locked="false"
       inkscape:label=""
       id="guide901"
       orientation="0,1"
       position="-21.247928,47.5" />
    <sodipodi:guide
       inkscape:color="rgb(0,0,255)"
       inkscape:locked="false"
       inkscape:label=""
       id="guide903"
       orientation="0,1"
       position="23.954946,43.500002" />
    <sodipodi:guide
       inkscape:color="rgb(0,0,255)"
       inkscape:locked="false"
       inkscape:label=""
       id="guide905"
       orientation="0,1"
       position="-13.630746,39.5" />
    <sodipodi:guide
       inkscape:color="rgb(0,0,255)"
       inkscape:locked="false"
       inkscape:label=""
       id="guide907"
       orientation="0,1"
       position="-15.902537,23.5" />
    <sodipodi:guide
       inkscape:color="rgb(0,0,255)"
       inkscape:locked="false"
       inkscape:label=""
       id="guide947"
       orientation="0,1"
       position="-2.5513393,95.499999" />
    <sodipodi:guide
       inkscape:color="rgb(0,0,255)"
       inkscape:locked="false"
       inkscape:label=""
       id="guide949"
       orientation="0,1"
       position="2.0788691,103.5" />
    <sodipodi:guide
       inkscape:color="rgb(0,0,255)"
       inkscape:locked="false"
       inkscape:label=""
       id="guide996"
       orientation="-1,0"
       position="1.58,32.186943" />
    <sodipodi:guide
       inkscape:color="rgb(0,0,255)"
       inkscape:locked="false"
       inkscape:label=""
       id="guide998"
       orientation="-1,0"
       position="8.5799999,33.10826" />
    <sodipodi:guide
       inkscape:color="rgb(0,0,255)"
       inkscape:locked="false"
       inkscape:label=""
       id="guide3392"
       orientation="0,1"
       position="12.739999,13.5" />
    <sodipodi:guide
       inkscape:color="rgb(0,0,255)"
       inkscape:locked="false"
       inkscape:label=""
       id="guide924"
       orientation="0,1"
       position="-0.87296732,105.5" />
    <sodipodi:guide
       position="10.16,1.3601416"
       orientation="-1,0"
       id="guide2565"
       inkscape:label=""
       inkscape:locked="false"
       inkscape:color="rgb(0,0,255)" />
  </sodipodi:namedview>
  <metadata
     id="metadata5">
    <rdf:RDF>
      <cc:Work
         rdf:about="">
        <dc:format>image/svg+xml</dc:format>
        <dc:type
           rdf:resource="http://purl.org/dc/dcmitype/StillImage" />
        <dc:title />
      </cc:Work>
    </rdf:RDF>
  </metadata>
  <g
     style="display:inline;"
     inkscape:label="Layer 1"
     inkscape:groupmode="layer"
     id="layer1"
     transform="translate(0,-168.5)">
    <rect
       y="168.5"
       x="-1.110223e-16"
       height="128.5"
       width="20.32"
       id="rect838"
       style="display:inline;fill:#bbbbb0;fill-opacity:1;stroke:none;stroke-width:1.131;stroke-miterlimit:4;stroke-dasharray:none;opacity:1" />
    <rect
       ry="0.80000001"
       y="260.5"
       x="10.15"
       height="13"
       width="8.6000004"
       id="rect45"
       style="fill:#555d50;stroke:none;stroke-width:0.829457;stroke-opacity:0.25;fill-opacity:1" />
    <g
       style="font-weight:bold;font-stretch:condensed;font-size:2.82223px;line-height:1.25;font-family:'PT Sans Narrow';-inkscape-font-specification:'PT Sans Narrow, Bold Condensed';display:inline;stroke-width:0.264583"
       id="text847"
       aria-label="CV In"
       transform="translate(9.397,-3.53951)">
      <path
         id="path922"
         style="stroke-width:0.264583"
         d="m 4.308,250.03951 h 0.355601 v 1.97557 H 4.308 Z"
         inkscape:connector-curvature="0" />
      <path
         id="path924"
         style="stroke-width:0.264583"
         d="m 5.6429119,252.01508 v -0.85796 q 0,-0.15522 -0.036689,-0.21731 -0.036689,-0.0621 -0.1241781,-0.0621 -0.073378,0 -0.1270004,0.0451 -0.053622,0.0452 -0.0762,0.11289 v 0.97932 H 4.9429988 v -1.41112 h 0.2681119 l 0.039511,0.16369 h 0.00847 q 0.0508,-0.0818 0.1382893,-0.13829 0.087489,-0.0593 0.2286006,-0.0593 0.084667,0 0.1495782,0.0254 0.067733,0.0254 0.1128892,0.0847 0.045156,0.0565 0.067734,0.15522 0.022578,0.096 0.022578,0.23989 v 0.93981 z"
         inkscape:connector-curvature="0" />
    </g>
    <g
       aria-label="Round"
       id="text35"
       style="font-weight:bold;font-stretch:condensed;font-size:2.82223px;line-height:1.25;font-family:'PT Sans Narrow';-inkscape-font-specification:'PT Sans Narrow, Bold Condensed';stroke-width:0.264583"
       transform="translate(9.4597024,-12.59915)">
      <path
         d="m 2.0192976,226.64715 q 0.1157115,-0.0254 0.2483563,-0.0367 0.1326448,-0.0113 0.2286006,-0.0113 0.1213559,0 0.2370673,0.0254 0.1157115,0.0226 0.2032006,0.0875 0.090311,0.0621 0.1439337,0.17215 0.056445,0.10725 0.056445,0.27376 0,0.23989 -0.090311,0.39229 -0.087489,0.14958 -0.2427118,0.20602 l 0.1128892,0.0903 0.3640677,0.75636 H 2.8716111 L 2.527299,227.824 2.3748986,227.7873 v 0.81562 h -0.355601 z m 0.355601,0.89746 h 0.1213559 q 0.1326448,0 0.2003783,-0.079 0.067734,-0.0818 0.067734,-0.25118 0,-0.127 -0.056445,-0.20602 -0.056445,-0.0818 -0.1778005,-0.0818 -0.045156,0 -0.087489,0.003 -0.042333,0.003 -0.067734,0.0113 z"
         style="stroke-width:0.264583"
         id="path37"
         inkscape:connector-curvature="0" />
      <path
         d="m 3.2695383,227.89739 q 0,-0.37535 0.146756,-0.5588 0.146756,-0.18344 0.4092234,-0.18344 0.282223,0 0.4205123,0.18626 0.1382892,0.18627 0.1382892,0.55598 0,0.37818 -0.1467559,0.56163 -0.146756,0.18062 -0.4120456,0.18062 -0.5559794,0 -0.5559794,-0.74225 z m 0.3471344,0 q 0,0.21167 0.047978,0.32738 0.047978,0.11571 0.1608671,0.11571 0.1072447,0 0.1580449,-0.0988 0.053622,-0.1016 0.053622,-0.34432 0,-0.21731 -0.047978,-0.3302 -0.047978,-0.11289 -0.1636893,-0.11289 -0.098778,0 -0.1552227,0.1016 -0.053622,0.0988 -0.053622,0.34149 z"
         style="stroke-width:0.264583"
         id="path39"
         inkscape:connector-curvature="0" />
      <path
         d="m 4.9007864,227.19184 v 0.84384 q 0,0.16651 0.031044,0.23143 0.031045,0.0649 0.1128892,0.0649 0.079022,0 0.1326448,-0.0565 0.053622,-0.0593 0.0762,-0.14111 v -0.94262 h 0.3358453 v 0.98213 q 0,0.11571 0.00847,0.2286 0.00847,0.11007 0.031045,0.20038 H 5.3749211 l -0.059267,-0.19191 h -0.00847 q -0.053622,0.0988 -0.1467559,0.16369 -0.090311,0.0649 -0.2257784,0.0649 -0.087489,0 -0.1552227,-0.0254 -0.067734,-0.0226 -0.1157114,-0.0818 -0.047978,-0.0593 -0.073378,-0.16087 -0.0254,-0.10442 -0.0254,-0.26247 v -0.91722 z"
         style="stroke-width:0.264583"
         id="path41"
         inkscape:connector-curvature="0" />
      <path
         d="m 6.5348553,228.60295 v -0.85796 q 0,-0.15522 -0.036689,-0.21731 -0.036689,-0.0621 -0.1241781,-0.0621 -0.073378,0 -0.1270004,0.0452 -0.053622,0.0452 -0.0762,0.11289 v 0.97931 H 5.8349422 v -1.41111 h 0.2681119 l 0.039511,0.16369 h 0.00847 q 0.0508,-0.0818 0.1382893,-0.13829 0.087489,-0.0593 0.2286006,-0.0593 0.084667,0 0.1495782,0.0254 0.067734,0.0254 0.1128892,0.0847 0.045156,0.0564 0.067733,0.15522 0.022578,0.0959 0.022578,0.23989 v 0.9398 z"
         style="stroke-width:0.264583"
         id="path43"
         inkscape:connector-curvature="0" />
      <path
         d="m 8.1153023,228.10624 q 0,0.11853 0.00282,0.23707 0.00282,0.11853 0.022578,0.26246 H 7.9036351 l -0.045156,-0.16369 h -0.011289 q -0.095956,0.19756 -0.3358454,0.19756 -0.2144895,0 -0.3386676,-0.16933 -0.1213559,-0.16934 -0.1213559,-0.55034 0,-0.37253 0.1326448,-0.56444 0.1326448,-0.19474 0.3951122,-0.19474 0.067734,0 0.1128892,0.008 0.045156,0.008 0.087489,0.0282 v -0.57009 h 0.3358454 z m -0.5249348,0.22578 q 0.0762,0 0.1213559,-0.0367 0.045156,-0.0395 0.067733,-0.11289 v -0.66605 q -0.028222,-0.0254 -0.064911,-0.0367 -0.033867,-0.0113 -0.090311,-0.0113 -0.1128892,0 -0.1693338,0.1016 -0.056445,0.10161 -0.056445,0.36125 0,0.19473 0.045156,0.29916 0.047978,0.1016 0.1467559,0.1016 z"
         style="stroke-width:0.264583"
         id="path45"
         inkscape:connector-curvature="0" />
    </g>
    <g
       style="font-weight:bold;font-stretch:condensed;font-size:2.82223px;line-height:1.25;font-family:'PT Sans Narrow';-inkscape-font-specification:'PT Sans Narrow, Bold Condensed';display:inline;fill:#fffff0;stroke-width:0.264583;fill-opacity:1"
       id="text851"
       aria-label="CV Out"
       transform="translate(9.46,-0.5)">
      <path
         id="path931"
         style="fill:#fffff0;stroke-width:0.264583;fill-opacity:1"
         d="m 3.1180002,263.0273 q 0,-0.50236 0.172156,-0.76483 Q 3.4623123,262 3.815091,262 q 0.183445,0 0.3160898,0.0734 0.1326448,0.0706 0.2173117,0.20602 0.084667,0.13265 0.1241782,0.32456 0.042333,0.18909 0.042333,0.42334 0,0.50235 -0.1778005,0.76482 -0.1749783,0.26247 -0.5221126,0.26247 -0.1862671,0 -0.318912,-0.0706 -0.1298225,-0.0734 -0.2144895,-0.20602 Q 3.1970221,263.64252 3.157511,263.45343 3.118,263.26152 3.118,263.02728 Z m 0.3725344,0 q 0,0.14957 0.016933,0.2794 0.016933,0.127 0.056445,0.22013 0.039511,0.0931 0.098778,0.14676 0.062089,0.0536 0.1524004,0.0536 0.1636894,0 0.2455341,-0.16651 0.081845,-0.16651 0.081845,-0.5334 0,-0.14394 -0.016933,-0.27094 -0.016933,-0.12982 -0.056445,-0.22296 -0.036689,-0.0959 -0.098778,-0.14957 -0.062089,-0.0564 -0.1552227,-0.0564 -0.3245564,0 -0.3245564,0.69992 z"
         inkscape:connector-curvature="0" />
      <path
         id="path933"
         style="fill:#fffff0;stroke-width:0.264583;fill-opacity:1"
         d="m 5.04276,262.60396 v 0.84385 q 0,0.16651 0.031045,0.23142 0.031045,0.0649 0.1128892,0.0649 0.079022,0 0.1326448,-0.0564 0.053622,-0.0593 0.0762,-0.14111 v -0.94263 h 0.3358454 v 0.98214 q 0,0.11571 0.00847,0.2286 0.00847,0.11006 0.031045,0.20038 H 5.5168946 l -0.059267,-0.19192 h -0.00847 q -0.053622,0.0988 -0.146756,0.16369 -0.090311,0.0649 -0.2257784,0.0649 -0.087489,0 -0.1552226,-0.0254 -0.067734,-0.0226 -0.1157115,-0.0818 -0.047978,-0.0593 -0.073378,-0.16087 -0.0254,-0.10442 -0.0254,-0.26246 v -0.91723 z"
         inkscape:connector-curvature="0" />
      <path
         id="path935"
         style="fill:#fffff0;stroke-width:0.264583;fill-opacity:1"
         d="M 5.8668483,262.60396 H 6.022071 v -0.26529 l 0.3358454,-0.10442 v 0.36971 h 0.2737563 v 0.29916 H 6.3579164 v 0.61524 q 0,0.12136 0.022578,0.17216 0.0254,0.0508 0.087489,0.0508 0.042333,0 0.0762,-0.008 0.033867,-0.008 0.073378,-0.0254 l 0.042333,0.26811 q -0.062089,0.0311 -0.1439337,0.0508 -0.081845,0.0226 -0.1721561,0.0226 -0.1608671,0 -0.2427118,-0.0931 -0.079022,-0.0931 -0.079022,-0.31327 v -0.73942 H 5.8668483 Z"
         inkscape:connector-curvature="0" />
    </g>
    <text
       id="text64"
       y="233.73691"
       x="2.0529213"
       style="font-weight:bold;font-stretch:condensed;font-size:2.82223px;line-height:1.25;font-family:'PT Sans Narrow';-inkscape-font-specification:'PT Sans Narrow, Bold Condensed';stroke-width:0.264583"
       xml:space="preserve"><tspan
         style="stroke-width:0.264583"
         y="233.73691"
         x="2.0529213"
         id="tspan62"
         sodipodi:role="line" /></text>
    <rect
       style="fill:#555d50;stroke:none;stroke-width:0.829457;stroke-opacity:0.25;fill-opacity:1"
       id="rect879"
       width="8.6000004"
       height="13"
       x="10.14"
       y="275.5"
       ry="0.80000001" />
    <g
       transform="translate(9.3600333)"
       aria-label="Trig"
       id="text883"
       style="font-weight:bold;font-stretch:condensed;font-size:2.82223px;line-height:1.25;font-family:'PT Sans Narrow';-inkscape-font-specification:'PT Sans Narrow, Bold Condensed';fill:#fffff0;stroke-width:0.264583;fill-opacity:1">
      <path
         inkscape:connector-curvature="0"
         d="M 4.5395481,276.8556 H 4.0710579 v 1.64818 H 3.7154569 V 276.8556 H 3.2469667 v -0.32738 h 1.2925814 z"
         style="fill:#fffff0;stroke-width:0.264583;fill-opacity:1"
         id="path886" />
      <path
         inkscape:connector-curvature="0"
         d="m 5.1068123,277.42569 q -0.067733,-0.0254 -0.1241781,-0.0254 -0.0762,0 -0.1326449,0.0423 -0.053622,0.0423 -0.073378,0.11853 v 0.94262 H 4.440766 v -1.41111 h 0.2568229 l 0.039511,0.16933 h 0.011289 q 0.036689,-0.0931 0.1044225,-0.14393 0.070556,-0.0536 0.1608671,-0.0536 0.067734,0 0.1326448,0.0282 z"
         style="fill:#fffff0;stroke-width:0.264583;fill-opacity:1"
         id="path888" />
      <path
         inkscape:connector-curvature="0"
         d="M 5.2958996,277.09267 H 5.631745 v 1.41111 H 5.2958996 Z m -0.039511,-0.39794 q 0,-0.0847 0.053622,-0.13828 0.053622,-0.0564 0.1524004,-0.0564 0.098778,0 0.1580449,0.0536 0.059267,0.0536 0.059267,0.14111 0,0.0875 -0.059267,0.13829 -0.059267,0.0508 -0.1580449,0.0508 -0.098778,0 -0.1524004,-0.0508 -0.053622,-0.0536 -0.053622,-0.13829 z"
         style="fill:#fffff0;stroke-width:0.264583;fill-opacity:1"
         id="path890" />
      <path
         inkscape:connector-curvature="0"
         d="m 6.9130332,278.50378 q 0,0.30763 -0.1411115,0.45156 -0.1411115,0.14676 -0.39229,0.14676 -0.1749783,0 -0.2737563,-0.0282 -0.098778,-0.0254 -0.1524005,-0.0564 l 0.070556,-0.28505 q 0.062089,0.0254 0.1326448,0.048 0.073378,0.0226 0.172156,0.0226 0.1439338,0 0.1975561,-0.079 0.056445,-0.0762 0.056445,-0.23425 v -0.0762 h -0.00847 q -0.039511,0.0564 -0.1072448,0.0847 -0.064911,0.0282 -0.1693338,0.0282 -0.2229562,0 -0.3358454,-0.16651 -0.1100669,-0.16933 -0.1100669,-0.5334 0,-0.39229 0.1524004,-0.57856 0.1552226,-0.18627 0.4402679,-0.18627 0.1524004,0 0.2737563,0.0254 0.1213559,0.0226 0.1947339,0.0564 z m -0.5221126,-0.26529 q 0.0762,0 0.1185337,-0.0367 0.045156,-0.0367 0.067734,-0.10443 v -0.70555 q -0.031045,-0.0141 -0.070556,-0.0226 -0.036689,-0.008 -0.087489,-0.008 -0.1044225,0 -0.1636893,0.1016 -0.056445,0.1016 -0.056445,0.34996 0,0.42615 0.1919116,0.42615 z"
         style="fill:#fffff0;stroke-width:0.264583;fill-opacity:1"
         id="path892" />
    </g>
    <rect
       y="245.58817"
       x="31.425222"
       height="7.9118319"
       width="0.94890845"
       id="rect885"
       style="opacity:0.356366;fill:#ffffff;stroke:#ff0000;stroke-width:0.0649999" />
    <rect
       ry="1.5"
       rx="1.5"
       y="196.60001"
       x="1.5799996"
       height="4.5"
       width="7"
       id="rect912"
       style="display:inline;opacity:0.399946;fill:#787878;fill-opacity:1;stroke:none;stroke-width:1" />
    <rect
       style="display:inline;opacity:0.399946;fill:#787878;fill-opacity:1;stroke:none;stroke-width:1"
       id="rect929"
       width="7"
       height="4.5"
       x="1.58"
       y="204.60001"
       rx="1.5"
       ry="1.5" />
    <rect
       style="display:inline;opacity:0.399946;fill:#787878;fill-opacity:1;stroke:none;stroke-width:1"
       id="rect931"
       width="7"
       height="4.5"
       x="1.58"
       y="212.60001"
       rx="1.5"
       ry="1.5" />
    <rect
       ry="1.5"
       rx="1.5"
       y="220.60001"
       x="1.58"
       height="4.5"
       width="7"
       id="rect933"
       style="display:inline;opacity:0.399946;fill:#787878;fill-opacity:1;stroke:none;stroke-width:1" />
    <rect
       style="display:inline;opacity:0.399946;fill:#787878;fill-opacity:1;stroke:none;stroke-width:1"
       id="rect935"
       width="7"
       height="4.5"
       x="1.58"
       y="228.60001"
       rx="1.5"
       ry="1.5" />
    <rect
       ry="1.5"
       rx="1.5"
       y="236.60001"
       x="1.58"
       height="4.5"
       width="7"
       id="rect937"
       style="display:inline;opacity:0.399946;fill:#787878;fill-opacity:1;stroke:none;stroke-width:1" />
    <rect
       style="display:inline;opacity:0.399946;fill:#787878;fill-opacity:1;stroke:none;stroke-width:1"
       id="rect939"
       width="7"
       height="4.5"
       x="1.58"
       y="244.60001"
       rx="1.5"
       ry="1.5" />
    <rect
       ry="1.5"
       rx="1.5"
       y="252.60001"
       x="1.58"
       height="4.5"
       width="7"
       id="rect944"
       style="display:inline;opacity:0.399946;fill:#787878;fill-opacity:1;stroke:none;stroke-width:1" />
    <rect
       style="display:inline;opacity:0.399946;fill:#787878;fill-opacity:1;stroke:none;stroke-width:1"
       id="rect946"
       width="7"
       height="4.5"
       x="1.58"
       y="260.60001"
       rx="1.5"
       ry="1.5" />
    <rect
       ry="1.5"
       rx="1.5"
       y="268.60001"
       x="1.5799996"
       height="4.5"
       width="7"
       id="rect948"
       style="display:inline;opacity:0.399946;fill:#787878;fill-opacity:1;stroke:none;stroke-width:1" />
    <rect
       style="display:inline;opacity:0.399946;fill:#787878;fill-opacity:1;stroke:none;stroke-width:1"
       id="rect950"
       width="7"
       height="4.5"
       x="1.58"
       y="276.60001"
       rx="1.5"
       ry="1.5" />
    <rect
       ry="1.5"
       rx="1.5"
       y="284.60001"
       x="1.58"
       height="4.5"
       width="7"
       id="rect952"
       style="display:inline;opacity:0.399946;fill:#787878;fill-opacity:1;stroke:none;stroke-width:1" />
    <g
       aria-label="Transp"
       id="text924"
       style="font-weight:bold;font-stretch:condensed;font-size:2.82223px;line-height:1.25;font-family:'PT Sans Narrow';-inkscape-font-specification:'PT Sans Narrow, Bold Condensed';stroke-width:0.264583"
       transform="translate(0,1.00001)">
      <path
         d="m 13.187582,198.82737 h -0.46849 v 1.64819 h -0.355601 v -1.64819 H 11.895 v -0.32738 h 1.292582 z"
         style="stroke-width:0.264583"
         id="path926"
         inkscape:connector-curvature="0" />
      <path
         d="m 13.754846,199.39746 q -0.06773,-0.0254 -0.124178,-0.0254 -0.0762,0 -0.132645,0.0423 -0.05362,0.0423 -0.07338,0.11853 v 0.94263 h -0.335845 v -1.41112 h 0.256823 l 0.03951,0.16933 h 0.01129 q 0.03669,-0.0931 0.104422,-0.14393 0.07056,-0.0536 0.160867,-0.0536 0.06773,0 0.132645,0.0282 z"
         style="stroke-width:0.264583"
         id="path928"
         inkscape:connector-curvature="0" />
      <path
         d="m 13.918533,199.14911 q 0.08467,-0.0508 0.211667,-0.0819 0.127001,-0.031 0.287868,-0.031 0.23989,0 0.333023,0.12418 0.09596,0.12417 0.09596,0.35277 0,0.13265 -0.0085,0.26247 -0.0056,0.127 -0.0085,0.25118 -0.0028,0.12136 0.0028,0.23707 0.0085,0.11289 0.03951,0.21449 h -0.273756 l -0.05362,-0.17216 h -0.01129 q -0.04516,0.0819 -0.127,0.13547 -0.08184,0.0536 -0.206023,0.0536 -0.166511,0 -0.262467,-0.11007 -0.09596,-0.11289 -0.09596,-0.29915 0,-0.254 0.180623,-0.36125 0.180622,-0.10724 0.488246,-0.0903 0.01411,-0.16369 -0.02258,-0.23707 -0.03387,-0.0734 -0.149578,-0.0734 -0.08467,0 -0.174979,0.0197 -0.09031,0.0198 -0.160867,0.0565 z m 0.403579,1.05833 q 0.0762,0 0.124178,-0.0367 0.04798,-0.0395 0.07056,-0.0847 v -0.23425 q -0.06491,-0.008 -0.124178,-0.003 -0.05927,0.006 -0.104423,0.0254 -0.04515,0.0198 -0.07338,0.0593 -0.0254,0.0367 -0.0254,0.0959 0,0.0875 0.03387,0.13265 0.03669,0.0451 0.09878,0.0451 z"
         style="stroke-width:0.264583"
         id="path930"
         inkscape:connector-curvature="0" />
      <path
         d="m 15.7812,200.47556 v -0.85796 q 0,-0.15523 -0.03669,-0.21731 -0.03669,-0.0621 -0.124178,-0.0621 -0.07338,0 -0.127,0.0452 -0.05362,0.0452 -0.0762,0.11289 v 0.97932 h -0.335845 v -1.41112 h 0.268112 l 0.03951,0.16369 h 0.0085 q 0.0508,-0.0818 0.138289,-0.13829 0.08749,-0.0593 0.228601,-0.0593 0.08467,0 0.149578,0.0254 0.06773,0.0254 0.112889,0.0847 0.04516,0.0565 0.06773,0.15522 0.02258,0.096 0.02258,0.23989 v 0.93981 z"
         style="stroke-width:0.264583"
         id="path932"
         inkscape:connector-curvature="0" />
      <path
         d="m 16.822601,200.1002 q 0,-0.0593 -0.03951,-0.0988 -0.03669,-0.0423 -0.09596,-0.0762 -0.05927,-0.0367 -0.127,-0.0734 -0.06491,-0.0367 -0.124178,-0.0903 -0.05927,-0.0536 -0.09878,-0.12982 -0.03669,-0.0762 -0.03669,-0.19191 0,-0.19756 0.107244,-0.3048 0.107245,-0.10725 0.31609,-0.10725 0.124178,0 0.234245,0.0282 0.110067,0.0254 0.174979,0.0649 l -0.07902,0.25965 q -0.05362,-0.0226 -0.129822,-0.0423 -0.0762,-0.0226 -0.149579,-0.0226 -0.138289,0 -0.138289,0.11571 0,0.0536 0.03669,0.0903 0.03951,0.0339 0.09878,0.0677 0.05927,0.0339 0.124178,0.0705 0.06773,0.0367 0.127001,0.0931 0.05927,0.0536 0.09596,0.13265 0.03951,0.079 0.03951,0.19473 0,0.19474 -0.118534,0.31327 -0.118534,0.11853 -0.352779,0.11853 -0.115711,0 -0.2286,-0.0282 -0.110067,-0.0282 -0.177801,-0.0734 l 0.09313,-0.27093 q 0.05927,0.0339 0.135467,0.0593 0.07902,0.0254 0.163689,0.0254 0.06491,0 0.107245,-0.0282 0.04233,-0.031 0.04233,-0.0959 z"
         style="stroke-width:0.264583"
         id="path934"
         inkscape:connector-curvature="0" />
    </g>
    <g
       style="font-weight:bold;font-stretch:condensed;font-size:4.9389px;line-height:1.25;font-family:'PT Sans Narrow';-inkscape-font-specification:'PT Sans Narrow, Bold Condensed';letter-spacing:0px;word-spacing:0px;stroke-width:0.264583"
       id="text948"
       aria-label="Quant">
      <path
         id="path954"
         style="stroke-width:0.264583"
         d="m 8.2013952,178.49439 q -0.098778,0.0346 -0.2024949,0.0494 -0.098778,0.0148 -0.197556,0.0148 -0.2074338,0 -0.4049898,-0.0494 -0.1926171,-0.0494 -0.3753564,-0.1136 -0.1827393,-0.0593 -0.3556008,-0.10865 -0.1679226,-0.0494 -0.3210285,-0.0494 -0.049389,0 -0.098778,0.005 -0.04445,0.005 -0.0889,0.0197 v -0.55315 q 0.1185336,-0.0296 0.2370672,-0.0296 0.1679226,0 0.3358452,0.0494 0.1728615,0.0494 0.345723,0.10372 0.1778004,0.0593 0.3605397,0.10865 0.1876782,0.0494 0.3901731,0.0494 0.0889,0 0.1827393,-0.0148 0.093839,-0.01 0.1926171,-0.0395 z m -2.716395,-2.69664 q 0,-0.87912 0.3012729,-1.33844 0.3012729,-0.45932 0.9186354,-0.45932 0.3210285,0 0.5531568,0.12841 0.2321283,0.12348 0.3802953,0.36054 0.148167,0.23213 0.2173116,0.56798 0.074084,0.3309 0.074084,0.74083 0,0.87913 -0.3111507,1.33844 -0.3062118,0.45932 -0.9136965,0.45932 -0.3259674,0 -0.5580957,-0.12347 -0.2271894,-0.12841 -0.3753564,-0.36054 -0.148167,-0.23707 -0.2173116,-0.56797 -0.069145,-0.33585 -0.069145,-0.74578 z m 0.6519348,0 q 0,0.26176 0.029633,0.48895 0.029633,0.22225 0.098778,0.38524 0.069145,0.16298 0.1728615,0.25682 0.1086558,0.0938 0.2667006,0.0938 0.2864562,0 0.4296843,-0.2914 0.1432281,-0.29139 0.1432281,-0.93345 0,-0.25188 -0.029633,-0.47413 -0.029633,-0.22719 -0.098778,-0.39018 -0.064206,-0.16792 -0.1728615,-0.26176 -0.1086558,-0.0988 -0.2716395,-0.0988 -0.5679735,0 -0.5679735,1.22485 z" />
      <path
         id="path956"
         style="stroke-width:0.264583"
         d="m 8.8533276,175.05692 v 1.47673 q 0,0.29139 0.054328,0.40499 0.054328,0.11359 0.197556,0.11359 0.1382892,0 0.2321283,-0.0988 0.093839,-0.10371 0.1333503,-0.24694 v -1.64959 h 0.5877289 v 1.71873 q 0,0.2025 0.01482,0.40006 0.01482,0.19261 0.05433,0.35066 H 9.6830628 l -0.1037169,-0.33585 h -0.014817 q -0.093839,0.17286 -0.2568228,0.28646 -0.1580448,0.11359 -0.395112,0.11359 -0.1531059,0 -0.2716395,-0.0445 -0.1185336,-0.0395 -0.2024949,-0.14323 -0.083961,-0.10371 -0.1284114,-0.28151 -0.04445,-0.18274 -0.04445,-0.45932 v -1.60514 z" />
      <path
         id="path958"
         style="stroke-width:0.264583"
         d="m 10.493038,175.20508 q 0.148167,-0.0889 0.370417,-0.14322 0.222251,-0.0543 0.503768,-0.0543 0.419807,0 0.58279,0.21731 0.167923,0.21731 0.167923,0.61736 0,0.23213 -0.01482,0.45932 -0.0099,0.22225 -0.01482,0.43956 -0.0049,0.21237 0.0049,0.41487 0.01482,0.19756 0.06914,0.37536 h -0.479073 l -0.09384,-0.30128 h -0.01976 q -0.07902,0.14323 -0.22225,0.23707 -0.143228,0.0938 -0.36054,0.0938 -0.291395,0 -0.459318,-0.19262 -0.167922,-0.19755 -0.167922,-0.52352 0,-0.4445 0.316089,-0.63218 0.31609,-0.18768 0.85443,-0.15805 0.02469,-0.28645 -0.03951,-0.41486 -0.05927,-0.12841 -0.261762,-0.12841 -0.148167,0 -0.306212,0.0346 -0.158045,0.0346 -0.281517,0.0988 z m 0.706263,1.85209 q 0.13335,0 0.217311,-0.0642 0.08396,-0.0692 0.123473,-0.14817 v -0.40993 q -0.113595,-0.0148 -0.217312,-0.005 -0.103717,0.01 -0.182739,0.0444 -0.07902,0.0346 -0.128412,0.10372 -0.04445,0.0642 -0.04445,0.16792 0,0.15311 0.05927,0.23213 0.06421,0.079 0.172862,0.079 z" />
      <path
         id="path960"
         style="stroke-width:0.264583"
         d="m 13.752703,177.52637 v -1.50143 q 0,-0.27164 -0.06421,-0.38029 -0.0642,-0.10866 -0.217311,-0.10866 -0.128412,0 -0.222251,0.079 -0.09384,0.079 -0.13335,0.19756 v 1.7138 h -0.587729 v -2.46945 h 0.469195 l 0.06914,0.28645 h 0.01482 q 0.0889,-0.14322 0.242006,-0.242 0.153106,-0.10372 0.400051,-0.10372 0.148167,0 0.261761,0.0445 0.118534,0.0444 0.197556,0.14817 0.07902,0.0988 0.118534,0.27164 0.03951,0.16792 0.03951,0.4198 v 1.64466 z" />
      <path
         id="path962"
         style="stroke-width:0.264583"
         d="m 14.552802,175.05692 h 0.27164 v -0.46426 l 0.587729,-0.18274 v 0.647 h 0.479073 v 0.52352 h -0.479073 v 1.07668 q 0,0.21237 0.03951,0.30127 0.04445,0.0889 0.153106,0.0889 0.07408,0 0.13335,-0.0148 0.05927,-0.0148 0.128412,-0.0444 l 0.07408,0.46919 q -0.108656,0.0543 -0.251884,0.0889 -0.143228,0.0395 -0.301273,0.0395 -0.281517,0 -0.424745,-0.16298 -0.138289,-0.16298 -0.138289,-0.54822 v -1.29399 h -0.27164 z" />
    </g>
    <g
       transform="translate(0.199981)"
       aria-label="Equi-"
       id="text1879"
       style="font-weight:bold;font-stretch:condensed;font-size:2.82223px;line-height:1.25;font-family:'PT Sans Narrow';-inkscape-font-specification:'PT Sans Narrow, Bold Condensed';text-align:center;text-anchor:middle;stroke-width:0.264583"
       inkscape:transform-center-x="0.64888044"
       inkscape:transform-center-y="-0.043750259">
      <path
         d="M 11.896019,232.02822 H 12.8838 v 0.32738 h -0.63218 v 0.48543 h 0.572913 v 0.32737 H 12.25162 v 0.50801 h 0.643469 v 0.32737 h -0.99907 z"
         style="stroke-width:0.264583"
         id="path1892" />
      <path
         d="m 14.114287,234.56823 h -0.335845 v -0.66322 h -0.01129 q -0.03951,0.0621 -0.104422,0.0988 -0.06209,0.0395 -0.169334,0.0395 -0.208845,0 -0.324557,-0.17781 -0.115711,-0.1778 -0.115711,-0.53904 0,-0.37818 0.160867,-0.57009 0.160867,-0.19474 0.457201,-0.19474 0.127001,0 0.248357,0.0254 0.124178,0.0254 0.194733,0.0565 z m -0.335845,-1.67358 q -0.05927,-0.0339 -0.158045,-0.0339 -0.110067,0 -0.166511,0.10725 -0.05362,0.10442 -0.05362,0.34431 0,0.4318 0.191912,0.4318 0.0762,0 0.118534,-0.0367 0.04516,-0.0395 0.06773,-0.11007 z"
         style="stroke-width:0.264583"
         id="path1894" />
      <path
         d="m 14.67873,232.59267 v 0.84385 q 0,0.16651 0.03105,0.23142 0.03104,0.0649 0.112889,0.0649 0.07902,0 0.132645,-0.0564 0.05362,-0.0593 0.0762,-0.14112 v -0.94262 h 0.335845 v 0.98214 q 0,0.11571 0.0085,0.2286 0.0085,0.11006 0.03104,0.20037 h -0.254 l -0.05927,-0.19191 h -0.0085 q -0.05362,0.0988 -0.146756,0.16369 -0.09031,0.0649 -0.225778,0.0649 -0.08749,0 -0.155223,-0.0254 -0.06773,-0.0226 -0.115711,-0.0818 -0.04798,-0.0593 -0.07338,-0.16087 -0.0254,-0.10442 -0.0254,-0.26247 v -0.91722 z"
         style="stroke-width:0.264583"
         id="path1896" />
      <path
         d="m 15.641108,232.59267 h 0.335846 v 1.41111 h -0.335846 z m -0.03951,-0.39794 q 0,-0.0847 0.05362,-0.13828 Q 15.708842,232 15.80762,232 q 0.09878,0 0.158045,0.0536 0.05927,0.0536 0.05927,0.14111 0,0.0875 -0.05927,0.13829 -0.05927,0.0508 -0.158045,0.0508 -0.09878,0 -0.152401,-0.0508 -0.05362,-0.0536 -0.05362,-0.13829 z"
         style="stroke-width:0.264583"
         id="path1898" />
      <path
         d="m 16.253528,233.03294 h 0.587024 v 0.32173 h -0.587024 z"
         style="stroke-width:0.264583"
         id="path1900" />
    </g>
    <g
       transform="translate(-0.101731,168.5)"
       aria-label="Scale"
       id="text928"
       style="font-weight:bold;font-stretch:condensed;font-size:2.82223px;line-height:1.25;font-family:'PT Sans Narrow';-inkscape-font-specification:'PT Sans Narrow, Bold Condensed';text-align:center;text-anchor:middle;display:inline;stroke-width:0.264583">
      <path
         d="m 12.597559,17.50707 q 0,-0.09031 -0.05362,-0.1524 -0.05362,-0.06491 -0.135467,-0.121356 -0.07902,-0.05644 -0.174978,-0.115711 -0.09313,-0.05927 -0.174978,-0.13829 -0.07902,-0.07902 -0.132645,-0.186267 -0.05362,-0.107245 -0.05362,-0.262467 0,-0.143934 0.04233,-0.242712 0.04516,-0.1016 0.121356,-0.163689 0.0762,-0.06491 0.180622,-0.09313 Q 12.32098,16 12.439514,16 q 0.143933,0 0.268111,0.02822 0.124179,0.02822 0.206023,0.0762 l -0.110067,0.313268 q -0.04798,-0.03387 -0.143933,-0.06209 -0.09313,-0.02822 -0.203201,-0.02822 -0.110067,0 -0.169334,0.04516 -0.05927,0.04516 -0.05927,0.132645 0,0.07902 0.05362,0.141111 0.05362,0.05927 0.132645,0.115712 0.08184,0.05644 0.174978,0.118533 0.09596,0.05927 0.174978,0.141112 0.08184,0.07902 0.135467,0.189089 0.05362,0.107245 0.05362,0.256823 0,0.149578 -0.04515,0.259645 -0.04233,0.110067 -0.124178,0.183445 -0.07902,0.07056 -0.191912,0.107245 -0.112889,0.03669 -0.251178,0.03669 -0.174979,0 -0.307624,-0.03387 -0.129822,-0.03387 -0.200378,-0.0762 l 0.115712,-0.318912 q 0.05644,0.03387 0.155222,0.06773 0.09878,0.03387 0.211667,0.03387 0.282224,0 0.282224,-0.220134 z"
         style="stroke-width:0.264583"
         id="path936" />
      <path
         d="m 13.971982,17.938872 q -0.07056,0.05644 -0.169334,0.08467 -0.09878,0.02822 -0.197556,0.02822 -0.143933,0 -0.242711,-0.0508 -0.09596,-0.05362 -0.158045,-0.149578 -0.06209,-0.09878 -0.09031,-0.234246 -0.0254,-0.138289 -0.0254,-0.307623 0,-0.369712 0.132645,-0.555979 0.132645,-0.186267 0.389468,-0.186267 0.127,0 0.206023,0.02258 0.08184,0.02258 0.143933,0.05644 l -0.07902,0.279401 q -0.0508,-0.0254 -0.09878,-0.03669 -0.04516,-0.01411 -0.110067,-0.01411 -0.118534,0 -0.177801,0.104422 -0.05927,0.101601 -0.05927,0.330201 0,0.191912 0.05927,0.313268 0.06209,0.121356 0.194734,0.121356 0.07056,0 0.118534,-0.01693 0.0508,-0.01975 0.09313,-0.04798 z"
         style="stroke-width:0.264583"
         id="path938" />
      <path
         d="m 14.130023,16.688624 q 0.08467,-0.0508 0.211667,-0.08185 0.127,-0.03104 0.287868,-0.03104 0.239889,0 0.333023,0.124178 0.09596,0.124178 0.09596,0.352778 0,0.132645 -0.0085,0.262468 -0.0056,0.127 -0.0085,0.251178 -0.0028,0.121356 0.0028,0.237068 0.0085,0.112889 0.03951,0.214489 H 14.81018 l -0.05362,-0.172156 h -0.01129 q -0.04516,0.08184 -0.127,0.135467 -0.08184,0.05362 -0.206023,0.05362 -0.166512,0 -0.262468,-0.110066 -0.09596,-0.11289 -0.09596,-0.299157 0,-0.254001 0.180622,-0.361245 0.180623,-0.107245 0.488246,-0.09031 0.01411,-0.163689 -0.02258,-0.237067 -0.03387,-0.07338 -0.149578,-0.07338 -0.08467,0 -0.174978,0.01976 -0.09031,0.01975 -0.160867,0.05644 z m 0.403579,1.058336 q 0.0762,0 0.124178,-0.03669 0.04798,-0.03951 0.07056,-0.08467 v -0.234245 q -0.06491,-0.0085 -0.124178,-0.0028 -0.05927,0.0056 -0.104423,0.0254 -0.04516,0.01975 -0.07338,0.05927 -0.0254,0.03669 -0.0254,0.09596 0,0.08749 0.03387,0.132644 0.03669,0.04516 0.09878,0.04516 z"
         style="stroke-width:0.264583"
         id="path940" />
      <path
         d="m 15.634266,17.557871 q 0,0.09878 0.01976,0.141111 0.01976,0.04233 0.06491,0.04233 0.0254,0 0.0508,-0.0056 0.02822,-0.0056 0.06209,-0.01976 l 0.03104,0.270935 q -0.03387,0.02258 -0.115711,0.04233 -0.08184,0.01976 -0.166512,0.01976 -0.141111,0 -0.211667,-0.07056 -0.07056,-0.07056 -0.07056,-0.23989 v -1.698982 h 0.335845 z"
         style="stroke-width:0.264583"
         id="path942" />
      <path
         d="m 16.932487,17.910649 q -0.07056,0.06209 -0.191912,0.101601 -0.121356,0.03951 -0.254,0.03951 -0.146756,0 -0.254001,-0.0508 -0.104423,-0.0508 -0.172156,-0.146756 -0.06773,-0.09596 -0.1016,-0.231423 -0.03105,-0.138289 -0.03105,-0.313268 0,-0.381001 0.149578,-0.561623 0.152401,-0.183445 0.420512,-0.183445 0.09031,0 0.174979,0.02822 0.08467,0.0254 0.149578,0.09031 0.06773,0.06209 0.107245,0.169334 0.04233,0.104423 0.04233,0.26529 0,0.06209 -0.0085,0.132645 -0.0056,0.07056 -0.01975,0.1524 h -0.685802 q 0.0056,0.174978 0.07338,0.268112 0.06773,0.09313 0.217312,0.09313 0.09031,0 0.163689,-0.02822 0.0762,-0.02822 0.115711,-0.05927 z m -0.440268,-1.058336 q -0.107245,0 -0.160867,0.08749 -0.05362,0.08467 -0.06209,0.23989 h 0.389468 q 0.0085,-0.160867 -0.03387,-0.242712 -0.04233,-0.08467 -0.132645,-0.08467 z"
         style="stroke-width:0.264583"
         id="path944" />
    </g>
    <g
       aria-label="GRANDE"
       id="text2550"
       style="font-size:1.76389px;line-height:1.25;font-family:'Source Sans Pro';-inkscape-font-specification:'Source Sans Pro, Normal';text-align:center;letter-spacing:0.370417px;text-anchor:middle;stroke-width:0.176389"
       transform="matrix(1.5,0,0,1.5,-3.9749815,-146.22397)">
      <path
         d="m 6.0075528,292.14876 c 0.1552223,0 0.2822224,-0.0564 0.3580697,-0.13405 v -0.48684 H 5.9846223 v 0.12171 H 6.229803 v 0.30162 c -0.045861,0.0423 -0.1252362,0.067 -0.2081391,0.067 -0.2469446,0 -0.3827641,-0.18168 -0.3827641,-0.47272 0,-0.28751 0.1481668,-0.46567 0.3810003,-0.46567 0.1164167,0 0.1905001,0.0441 0.2487084,0.10407 l 0.081139,-0.0917 c -0.067028,-0.0723 -0.1728612,-0.14287 -0.3333752,-0.14287 -0.3069169,0 -0.5309309,0.22754 -0.5309309,0.59972 0,0.37747 0.2169584,0.59972 0.5221114,0.59972 z"
         style="stroke-width:0.176389"
         id="path2552" />
      <path
         d="M 7.0112036,292.12759 H 7.1593704 V 291.639 h 0.208139 l 0.2786946,0.48859 h 0.1675696 l -0.2945697,-0.50447 c 0.1569862,-0.0406 0.2592919,-0.1464 0.2592919,-0.32632 0,-0.24165 -0.1693335,-0.32632 -0.4056948,-0.32632 H 7.0112036 Z m 0.1481668,-0.60854 v -0.42862 h 0.192264 c 0.1799167,0 0.2786946,0.0547 0.2786946,0.20637 0,0.14817 -0.098778,0.22225 -0.2786946,0.22225 z"
         style="stroke-width:0.176389"
         id="path2554" />
      <path
         d="m 8.5810621,291.48201 c 0.040569,-0.12876 0.077611,-0.25576 0.1128889,-0.38982 h 0.00706 c 0.037042,0.13406 0.074083,0.26106 0.1164167,0.38982 l 0.054681,0.17463 H 8.5263815 Z m -0.3545419,0.64558 h 0.1499306 l 0.1111251,-0.35101 h 0.4215697 l 0.1093612,0.35101 H 9.175493 L 8.7856733,290.97048 H 8.6163399 Z"
         style="stroke-width:0.176389"
         id="path2556" />
      <path
         d="m 9.7099494,292.12759 h 0.1393473 v -0.60854 c 0,-0.11994 -0.010583,-0.24518 -0.019403,-0.3616 h 0.00706 c 0.038806,0.0847 0.081139,0.1711 0.1252362,0.24871 l 0.4127501,0.72143 h 0.15875 v -1.15711 h -0.139347 v 0.60325 c 0,0.11995 0.01058,0.24695 0.0194,0.36689 h -0.0071 c -0.04057,-0.0847 -0.08114,-0.1711 -0.125236,-0.24871 L 9.8686995,290.97048 H 9.7099494 Z"
         style="stroke-width:0.176389"
         id="path2558" />
      <path
         d="m 11.219839,292.12759 h 0.296333 c 0.34925,0 0.53975,-0.21519 0.53975,-0.58384 0,-0.36689 -0.1905,-0.57327 -0.546805,-0.57327 h -0.289278 z m 0.148166,-0.1217 v -0.9137 h 0.130528 c 0.269875,0 0.403931,0.16051 0.403931,0.45156 0,0.2928 -0.134056,0.46214 -0.403931,0.46214 z"
         style="stroke-width:0.176389"
         id="path2560" />
      <path
         d="m 12.67681,292.12759 h 0.68439 v -0.12523 h -0.536223 v -0.41981 h 0.437445 v -0.12523 h -0.437445 v -0.3616 h 0.518584 v -0.12524 H 12.67681 Z"
         style="stroke-width:0.176389"
         id="path2562" />
    </g>
  </g>
  <g
     inkscape:groupmode="layer"
     id="layer2"
     inkscape:label="components"
     style="display:none">
    <circle
       inkscape:label="CV_In"
       style="fill:#00ff00;fill-rule:evenodd;stroke-width:0.264582"
       id="path11"
       cx="14.45"
       cy="85"
       r="2" />
    <circle
       inkscape:label="CV_Out"
       r="2"
       cy="100"
       cx="14.45"
       id="circle13"
       style="fill:#0000ff;fill-rule:evenodd;stroke-width:0.264582" />
    <circle
       r="2"
       cy="22.87355"
       cx="14.45331"
       id="circle839"
       style="fill:#00ff00;fill-rule:evenodd;stroke-width:0.264582" />
    <circle
       style="fill:#0000ff;fill-rule:evenodd;stroke-width:0.264582"
       id="circle877"
       cx="14.45"
       cy="115"
       r="2"
       inkscape:label="CV_Out"
       inkscape:transform-center-x="1.5552659"
       inkscape:transform-center-y="-9.0086503" />
    <rect
       ry="1"
       rx="1"
       y="105.5"
       x="2.0799999"
       height="6"
       width="6"
       id="rect941"
       style="opacity:1;fill:#505050;fill-opacity:1;stroke:#000000;stroke-width:1;stroke-miterlimit:4;stroke-dasharray:none;stroke-opacity:1" />
    <rect
       ry="1"
       rx="1"
       y="113.5"
       x="2.0799999"
       height="6"
       width="6"
       id="rect945"
       style="opacity:1;fill:#ff0000;fill-opacity:1;stroke:#ffffff;stroke-width:1;stroke-miterlimit:4;stroke-dasharray:none;stroke-opacity:1" />
    <rect
       style="opacity:1;fill:#505050;fill-opacity:1;stroke:#ffffff;stroke-width:1;stroke-miterlimit:4;stroke-dasharray:none;stroke-opacity:1"
       id="rect957"
       width="6"
       height="6"
       x="2.0799999"
       y="97.5"
       rx="1"
       ry="1" />
    <rect
       style="opacity:1;fill:#ff0000;fill-opacity:1;stroke:#000000;stroke-width:1;stroke-miterlimit:4;stroke-dasharray:none;stroke-opacity:1"
       id="rect959"
       width="6"
       height="6"
       x="2.0799999"
       y="89.5"
       rx="1"
       ry="1" />
    <rect
       ry="1"
       rx="1"
       y="81.5"
       x="2.0799999"
       height="6"
       width="6"
       id="rect961"
       style="opacity:1;fill:#ff0000;fill-opacity:1;stroke:#ffffff;stroke-width:1;stroke-miterlimit:4;stroke-dasharray:none;stroke-opacity:1" />
    <rect
       style="opacity:1;fill:#ff0000;fill-opacity:1;stroke:#ffffff;stroke-width:1;stroke-miterlimit:4;stroke-dasharray:none;stroke-opacity:1"
       id="rect963"
       width="6"
       height="6"
       x="2.0799999"
       y="73.5"
       rx="1"
       ry="1" />
    <rect
       ry="1"
       rx="1"
       y="65.5"
       x="2.0799999"
       height="6"
       width="6"
       id="rect965"
       style="opacity:1;fill:#ff0000;fill-opacity:1;stroke:#000000;stroke-width:1;stroke-miterlimit:4;stroke-dasharray:none;stroke-opacity:1" />
    <rect
       ry="1"
       rx="1"
       y="57.5"
       x="2.0799999"
       height="6"
       width="6"
       id="rect967"
       style="opacity:1;fill:#ff0000;fill-opacity:1;stroke:#ffffff;stroke-width:1;stroke-miterlimit:4;stroke-dasharray:none;stroke-opacity:1" />
    <rect
       style="opacity:1;fill:#ff0000;fill-opacity:1;stroke:#000000;stroke-width:1;stroke-miterlimit:4;stroke-dasharray:none;stroke-opacity:1"
       id="rect969"
       width="6"
       height="6"
       x="2.0799999"
       y="49.5"
       rx="1"
       ry="1" />
    <rect
       style="opacity:1;fill:#ff0000;fill-opacity:1;stroke:#ffffff;stroke-width:1;stroke-miterlimit:4;stroke-dasharray:none;stroke-opacity:1"
       id="rect971"
       width="6"
       height="6"
       x="2.0799999"
       y="41.5"
       rx="1"
       ry="1" />
    <rect
       ry="1"
       rx="1"
       y="33.5"
       x="2.0799999"
       height="6"
       width="6"
       id="rect973"
       style="opacity:1;fill:#ff0000;fill-opacity:1;stroke:#000000;stroke-width:1;stroke-miterlimit:4;stroke-dasharray:none;stroke-opacity:1" />
    <rect
       ry="1"
       rx="1"
       y="25.499998"
       x="2.0799999"
       height="6"
       width="6"
       id="rect975"
       style="opacity:1;fill:#ff0000;fill-opacity:1;stroke:#ffffff;stroke-width:1;stroke-miterlimit:4;stroke-dasharray:none;stroke-opacity:1" />
  </g>
</svg>
